<svg width="71" height="60" viewBox="0 0 71 60" fill="none" xmlns="http://www.w3.org/2000/svg">
<rect x="16.7685" y="14.1221" width="44.1844" height="42.7818" rx="7.01341" transform="rotate(-14.6967 16.7685 14.1221)" fill="#CCBDF1"/>
<path d="M39.444 9.8517C44.1658 13.4897 47.2075 19.2006 47.2075 25.6218C47.2075 36.6102 38.2995 45.5191 27.3103 45.5191C16.321 45.5191 7.41302 36.6102 7.41302 25.6218C7.41302 14.6334 16.321 5.72461 27.3103 5.72461C30.9601 5.72461 34.381 6.70781 37.3214 8.42335" fill="white"/>
<path d="M13.0968 27.9195L16.8649 28.7076C17.0879 29.4458 17.3861 30.1503 17.7519 30.8134L15.6359 34.0485C15.3749 34.4472 15.4374 35.0494 15.7745 35.3856L17.5474 37.1578C17.8845 37.4948 18.4859 37.5573 18.8846 37.2963L22.1459 35.1635C22.798 35.5149 23.4914 35.7995 24.2145 36.0141L25.0135 39.8354C25.1107 40.3016 25.5803 40.6834 26.0567 40.6834H28.5637C29.0401 40.6834 29.5098 40.3016 29.6069 39.8354L30.406 36.0141C31.1299 35.8004 31.8225 35.5149 32.4754 35.1635L35.7367 37.2963C36.1354 37.5573 36.7377 37.4948 37.0739 37.1578L38.846 35.3848C39.183 35.0478 39.2455 34.4463 38.9845 34.0477L36.8686 30.8125C37.2343 30.1495 37.5325 29.4442 37.7555 28.7059L41.5236 27.9178C41.9899 27.8198 42.3717 27.351 42.3717 26.8747V24.3676C42.3717 23.8913 41.9899 23.4216 41.5236 23.3245L37.7977 22.5448C37.579 21.7812 37.2825 21.0506 36.9117 20.3656L38.9854 17.1955C39.2464 16.7968 39.1839 16.1945 38.8468 15.8584L37.0739 14.0862C36.7368 13.7492 36.1354 13.6867 35.7367 13.9477L32.592 16.0045C31.896 15.6185 31.1535 15.3085 30.3756 15.0804L29.6077 11.4086C29.5106 10.9423 29.041 10.5605 28.5646 10.5605H26.0576C25.5812 10.5605 25.1115 10.9423 25.0144 11.4086L24.2466 15.0804C23.4686 15.3076 22.7262 15.6185 22.031 16.0036L18.8863 13.9469C18.4876 13.6859 17.8853 13.7484 17.5491 14.0854L15.777 15.8584C15.44 16.1954 15.3775 16.7968 15.6385 17.1955L17.7113 20.3656C17.3405 21.0506 17.0432 21.7821 16.8252 22.5457L13.0994 23.3253C12.6331 23.4225 12.2513 23.8921 12.2513 24.3685V26.8755C12.2513 27.3519 12.6331 27.8215 13.0994 27.9187L13.0968 27.9195Z" fill="#CCBDF1"/>
<path d="M33.888 22.9279H29.7609V18.8008H24.8593V22.9279H20.733V27.8295H24.8593V31.9566H29.7609V27.8295H33.888V22.9279Z" fill="#41CC96"/>
<path d="M27.3102 2.26562C14.3596 2.26562 3.86111 12.7641 3.86111 25.7147C3.86111 35.3204 9.63955 43.5729 17.9081 47.1966L25.6496 56.1358C26.5627 57.1899 28.0569 57.1899 28.97 56.1358L36.7115 47.1966C44.98 43.5729 50.7585 35.3204 50.7585 25.7147C50.7585 12.7641 40.26 2.26647 27.3102 2.26647V2.26562ZM27.3102 45.6111C16.3218 45.6111 7.41298 36.7031 7.41298 25.7139C7.41298 14.7246 16.321 5.81749 27.3102 5.81749C31.4314 5.81749 35.2595 7.07015 38.4346 9.21563L41.5743 11.8426C45.0603 15.4265 47.2074 20.3198 47.2074 25.7147C47.2074 36.7031 38.2995 45.612 27.3102 45.612V45.6111Z" fill="#BEEFD9"/>
<path d="M50.7585 25.7139C50.7585 12.7633 40.26 2.26562 27.3102 2.26562C14.3605 2.26562 3.86111 12.7633 3.86111 25.7139C3.86111 35.3196 9.63955 43.5721 17.9081 47.1957L25.6496 56.1349C26.5627 57.1891 28.0569 57.1891 28.97 56.1349L36.7115 47.1957C44.98 43.5721 50.7585 35.3196 50.7585 25.7139Z" stroke="#604B8C" stroke-width="1.41507" stroke-linecap="round" stroke-linejoin="round"/>
<path d="M38.9845 34.0488C39.2456 34.4474 39.183 35.0489 38.846 35.3859L37.0739 37.1589C36.7369 37.4959 36.1354 37.5576 35.7368 37.2974L32.4755 35.1646C31.8234 35.516 31.1299 35.8006 30.406 36.0152L29.6069 39.8365C29.5098 40.3028 29.0402 40.6845 28.5638 40.6845H26.0568C25.5804 40.6845 25.1107 40.3028 25.0136 39.8365L24.2145 36.0152C23.4906 35.8015 22.798 35.516 22.1459 35.1646L18.8846 37.2974C18.4859 37.5584 17.8845 37.4959 17.5475 37.1589L15.7745 35.3867C15.4375 35.0497 15.375 34.4483 15.636 34.0496L17.7519 30.8145C17.3861 30.1514 17.088 29.4461 16.865 28.7087L13.0969 27.9206C12.6306 27.8226 12.2488 27.3538 12.2488 26.8774V24.3704C12.2488 23.894 12.6306 23.4244 13.0969 23.3273L16.8227 22.5476C17.0415 21.784 17.338 21.0534 17.7088 20.3675L15.636 17.1974C15.375 16.7988 15.4375 16.1973 15.7745 15.8603L17.5466 14.0873C17.8837 13.7503 18.4851 13.6887 18.8838 13.9488L22.0285 16.0056C22.7237 15.6204 23.4661 15.3096 24.2441 15.0824L25.0119 11.4106C25.109 10.9443 25.5787 10.5625 26.0551 10.5625H28.5621C29.0385 10.5625 29.5081 10.9443 29.6052 11.4106L30.3731 15.0824C31.151 15.3096 31.8935 15.6204 32.5895 16.0064L35.7342 13.9497C36.1329 13.6887 36.7343 13.7512 37.0714 14.0882L38.8443 15.8603C39.1814 16.1973 39.2439 16.7988 38.9829 17.1974L36.9092 20.3675C37.28 21.0526 37.5773 21.7832 37.7952 22.5468L41.5211 23.3264C41.9874 23.4236 42.3692 23.8932 42.3692 24.3696V26.8766C42.3692 27.353 41.9874 27.8226 41.5211 27.9198L37.753 28.7079C37.53 29.4461 37.2318 30.1514 36.8661 30.8145L37.3881 31.6119" stroke="#604B8C" stroke-width="1.41507" stroke-linecap="round" stroke-linejoin="round"/>
<path d="M33.888 22.9279H29.7609V18.8008H24.8593V22.9279H20.733V27.8295H24.8593V31.9566H29.7609V27.8295H33.888V22.9279Z" stroke="#604B8C" stroke-width="1.41507" stroke-linecap="round" stroke-linejoin="round"/>
<path d="M39.444 9.8517C44.1658 13.4897 47.2075 19.2006 47.2075 25.6218C47.2075 36.6102 38.2995 45.5191 27.3103 45.5191C16.321 45.5191 7.41302 36.6102 7.41302 25.6218C7.41302 14.6334 16.321 5.72461 27.3103 5.72461C30.9601 5.72461 34.381 6.70781 37.3214 8.42335" stroke="#604B8C" stroke-width="1.41507" stroke-linecap="round" stroke-linejoin="round"/>
</svg>
