<svg width="72" height="60" viewBox="0 0 72 60" fill="none" xmlns="http://www.w3.org/2000/svg">
<rect x="15.6018" y="14.1221" width="44.1844" height="42.7818" rx="7.01341" transform="rotate(-14.6967 15.6018 14.1221)" fill="#CCBDF1"/>
<path d="M41.8708 58.4037H48.9458V53.4587C48.9458 52.26 47.9652 51.2803 46.7673 51.2803H8.58067C7.38199 51.2803 6.40224 52.2608 6.40224 53.4587V58.4037H36.8217" fill="#BEEFD9"/>
<path d="M26.5472 44.2012H15.517V51.2799H26.5472V44.2012Z" fill="#CCBCF1"/>
<path d="M16.8266 40.2754H30.0707C31.1984 40.2754 32.1134 41.1896 32.1134 42.3182C32.1134 43.4467 31.1992 44.3609 30.0707 44.3609H10.9211C9.79332 44.3609 8.87831 43.4467 8.87831 42.3182C8.87831 41.1896 9.79255 40.2754 10.9211 40.2754H13.421" fill="#CCBCF1"/>
<path d="M35.3009 6.34381L32.7382 10.3203L41.4946 15.9635L44.0573 11.987L35.3009 6.34381Z" fill="#CCBCF1"/>
<path d="M32.3856 30.0993L30.9826 32.2762C30.4954 33.0316 29.4794 33.2513 28.724 32.7641L22.7152 28.8906C21.9597 28.4034 21.74 27.3874 22.2272 26.632L23.6302 24.4551" fill="#CCBCF1"/>
<path d="M35.7468 1.69273L34.0877 4.26706C33.7619 4.77271 33.9076 5.44679 34.4133 5.77266L44.9438 12.5591C45.4495 12.885 46.1236 12.7393 46.4494 12.2336L48.1085 9.6593C48.4343 9.15365 48.2886 8.47957 47.7829 8.1537L37.2524 1.36721C36.7467 1.04134 36.0726 1.18708 35.7468 1.69273Z" fill="#CCBCF1"/>
<path d="M36.465 27.7303L34.7791 30.3458C34.4546 30.8491 33.777 30.9956 33.2736 30.6711L22.7437 23.8837C22.2404 23.5592 22.0939 22.8816 22.4184 22.3782L30.3482 10.0761C30.6728 9.57275 31.3503 9.42629 31.8537 9.75082L42.3836 16.5382C42.887 16.8627 43.0334 17.5403 42.7089 18.0437L41.4886 19.9369" fill="#BEEFD9"/>
<path d="M38.9554 28.48C41.5218 28.48 43.6022 26.3996 43.6022 23.8332C43.6022 21.2669 41.5218 19.1865 38.9554 19.1865C36.3891 19.1865 34.3087 21.2669 34.3087 23.8332C34.3087 26.3996 36.3891 28.48 38.9554 28.48Z" fill="#41CC96"/>
<path d="M30.0705 44.3613C34.9222 44.3613 38.9368 42.2484 41.3758 38.4111C43.6792 34.7881 44.2288 29.9409 42.7487 26.5176" stroke="#604B8C" stroke-width="1.42" stroke-linecap="round" stroke-linejoin="round"/>
<path d="M39.1382 28.4951C39.9969 30.9318 39.1991 34.2203 37.9272 36.2199C36.7509 38.0707 34.4329 40.2761 30.0699 40.2761" stroke="#604B8C" stroke-width="1.42" stroke-linecap="round" stroke-linejoin="round"/>
<path d="M16.8266 40.2754H30.0707C31.1984 40.2754 32.1134 41.1896 32.1134 42.3182C32.1134 43.4467 31.1992 44.3609 30.0707 44.3609H10.9211C9.79332 44.3609 8.87831 43.4467 8.87831 42.3182C8.87831 41.1896 9.79255 40.2754 10.9211 40.2754H13.421" stroke="#604B8C" stroke-width="1.42" stroke-linecap="round" stroke-linejoin="round"/>
<path d="M38.9554 28.48C41.5218 28.48 43.6022 26.3996 43.6022 23.8332C43.6022 21.2669 41.5218 19.1865 38.9554 19.1865C36.3891 19.1865 34.3087 21.2669 34.3087 23.8332C34.3087 26.3996 36.3891 28.48 38.9554 28.48Z" stroke="#604B8C" stroke-width="1.19251" stroke-linecap="round" stroke-linejoin="round"/>
<path d="M32.3856 30.0993L30.9826 32.2762C30.4954 33.0316 29.4794 33.2513 28.724 32.7641L22.7152 28.8906C21.9597 28.4034 21.74 27.3874 22.2272 26.632L23.6302 24.4551" stroke="#604B8C" stroke-width="1.42" stroke-linecap="round" stroke-linejoin="round"/>
<path d="M15.517 50.9121V44.3613H26.4701V50.9121" stroke="#604B8C" stroke-width="1.42" stroke-linecap="round" stroke-linejoin="round"/>
<path d="M41.8708 58.4037H48.9458V53.4587C48.9458 52.26 47.9652 51.2803 46.7673 51.2803H8.58067C7.38199 51.2803 6.40224 52.2608 6.40224 53.4587V58.4037H36.8217" stroke="#604B8C" stroke-width="1.42" stroke-linecap="round" stroke-linejoin="round"/>
<path d="M41.8708 58.4037H48.9458V53.4587C48.9458 52.26 47.9652 51.2803 46.7673 51.2803H8.58067C7.38199 51.2803 6.40224 52.2608 6.40224 53.4587V58.4037H36.8217" stroke="#604B8C" stroke-width="1.42" stroke-linecap="round" stroke-linejoin="round"/>
<path d="M15.517 44.3613V51.2805" stroke="#604B8C" stroke-width="1.42" stroke-linecap="round" stroke-linejoin="round"/>
<path d="M26.3937 44.3613L26.5471 51.2805" stroke="#604B8C" stroke-width="1.42" stroke-linecap="round" stroke-linejoin="round"/>
<path d="M42.7482 26.5176C44.2283 29.9409 43.6786 34.7881 41.3753 38.4111C38.9363 42.2477 34.9217 44.3613 30.07 44.3613" stroke="#604B8C" stroke-width="1.19251" stroke-linecap="round" stroke-linejoin="round"/>
<path d="M30.0706 40.2761C34.4337 40.2761 36.7524 38.0707 37.9279 36.2199C39.1991 34.2203 39.9969 30.9318 39.139 28.4951" stroke="#604B8C" stroke-width="1.19251" stroke-linecap="round" stroke-linejoin="round"/>
<path d="M32.3856 30.0993L30.9826 32.2762C30.4954 33.0316 29.4794 33.2513 28.724 32.7641L22.7152 28.8906C21.9597 28.4034 21.74 27.3874 22.2272 26.632L23.6302 24.4551" stroke="#604B8C" stroke-width="1.42" stroke-linecap="round" stroke-linejoin="round"/>
<path d="M35.3334 43.4141V50.9122" stroke="#604B8C" stroke-width="1.42" stroke-linecap="round" stroke-linejoin="round"/>
<path d="M38.9555 41.2344V48.0626" stroke="#604B8C" stroke-width="1.42" stroke-linecap="round" stroke-linejoin="round"/>
<path d="M35.3032 6.3457L32.7401 10.3225L41.4955 15.966L44.0586 11.9899" stroke="#604B8C" stroke-width="1.42" stroke-linecap="round" stroke-linejoin="round"/>
<path d="M36.465 27.7303L34.7791 30.3458C34.4546 30.8491 33.777 30.9956 33.2736 30.6711L22.7437 23.8837C22.2404 23.5592 22.0939 22.8816 22.4184 22.3782L30.3482 10.0761C30.6728 9.57275 31.3503 9.42629 31.8537 9.75082L42.3836 16.5382C42.887 16.8627 43.0334 17.5403 42.7089 18.0437L41.4886 19.9369" stroke="#604B8C" stroke-width="1.42" stroke-linecap="round" stroke-linejoin="round"/>
<path d="M35.7468 1.69273L34.0877 4.26706C33.7619 4.77271 33.9076 5.44679 34.4133 5.77266L44.9438 12.5591C45.4495 12.885 46.1236 12.7393 46.4494 12.2336L48.1085 9.6593C48.4343 9.15365 48.2886 8.47957 47.7829 8.1537L37.2524 1.36721C36.7467 1.04134 36.0726 1.18708 35.7468 1.69273Z" stroke="#604B8C" stroke-width="1.42" stroke-linecap="round" stroke-linejoin="round"/>
<path d="M36.465 27.7303L34.7791 30.3458C34.4546 30.8491 33.777 30.9956 33.2736 30.6711L22.7437 23.8837C22.2404 23.5592 22.0939 22.8816 22.4184 22.3782L30.3482 10.0761C30.6728 9.57275 31.3503 9.42629 31.8537 9.75082L42.3836 16.5382C42.887 16.8627 43.0334 17.5403 42.7089 18.0437L41.4886 19.9369" stroke="#604B8C" stroke-width="1.42" stroke-linecap="round" stroke-linejoin="round"/>
<path d="M35.7468 1.69273L34.0877 4.26706C33.7619 4.77271 33.9076 5.44679 34.4133 5.77266L44.9438 12.5591C45.4495 12.885 46.1236 12.7393 46.4494 12.2336L48.1085 9.6593C48.4343 9.15365 48.2886 8.47957 47.7829 8.1537L37.2524 1.36721C36.7467 1.04134 36.0726 1.18708 35.7468 1.69273Z" stroke="#604B8C" stroke-width="1.42" stroke-linecap="round" stroke-linejoin="round"/>
<path d="M32.7401 10.3225L35.3032 6.3457" stroke="#604B8C" stroke-width="1.19251" stroke-linecap="round" stroke-linejoin="round"/>
<path d="M41.4955 15.9663L44.0586 11.9902" stroke="#604B8C" stroke-width="1.19251" stroke-linecap="round" stroke-linejoin="round"/>
<path d="M38.9554 28.48C41.5218 28.48 43.6022 26.3996 43.6022 23.8332C43.6022 21.2669 41.5218 19.1865 38.9554 19.1865C36.3891 19.1865 34.3087 21.2669 34.3087 23.8332C34.3087 26.3996 36.3891 28.48 38.9554 28.48Z" stroke="#604B8C" stroke-width="1.42" stroke-linecap="round" stroke-linejoin="round"/>
<path d="M16.8266 40.2754H30.0707C31.1984 40.2754 32.1134 41.1896 32.1134 42.3182C32.1134 43.4467 31.1992 44.3609 30.0707 44.3609H10.9211C9.79332 44.3609 8.87831 43.4467 8.87831 42.3182C8.87831 41.1896 9.79255 40.2754 10.9211 40.2754H13.421" stroke="#604B8C" stroke-width="1.42" stroke-linecap="round" stroke-linejoin="round"/>
</svg>
