<svg width="71" height="60" viewBox="0 0 71 60" fill="none" xmlns="http://www.w3.org/2000/svg">
<rect x="14.9351" y="14.1221" width="44.1844" height="42.7818" rx="7.01341" transform="rotate(-14.6967 14.9351 14.1221)" fill="#CCBDF1"/>
<g clip-path="url(#clip0_1917_3759)">
<path d="M44.1421 26.6713L41.4528 26.4087C41.2394 25.8865 40.9734 25.3936 40.6592 24.9391L41.8773 22.5416C42.0303 22.2403 41.9397 21.8199 41.6766 21.6086L40.289 20.4948C40.0249 20.2827 39.5957 20.2852 39.3347 20.5005L37.2742 22.195C36.7536 21.9762 36.2052 21.8145 35.639 21.714L34.8138 19.1822C34.7088 18.8602 34.3481 18.6273 34.0117 18.6641L32.2426 18.8577C31.9062 18.8945 31.6044 19.1999 31.5715 19.5369L31.3133 22.1873C30.7814 22.4079 30.2818 22.6842 29.8208 23.0105L27.4426 21.8016C27.1413 21.6487 26.7209 21.7392 26.5096 22.0023L25.3958 23.3899C25.1837 23.654 25.1862 24.0832 25.4015 24.3442L27.1092 26.4216C26.9008 26.9341 26.7477 27.4729 26.6522 28.0289L24.0825 28.8669C23.7614 28.9719 23.5277 29.3326 23.5645 29.669L23.758 31.4382C23.7948 31.7745 24.1002 32.0763 24.4372 32.1093L27.1574 32.3747C27.3714 32.8785 27.6363 33.3532 27.9454 33.7925L26.7021 36.239C26.5491 36.5403 26.6396 36.9607 26.9028 37.172L28.2903 38.2859C28.5544 38.4979 28.9836 38.4954 29.2446 38.2801L31.3813 36.5231C31.8691 36.7212 32.3801 36.8686 32.9073 36.9637L33.7665 39.5992C33.8715 39.9212 34.2322 40.154 34.5686 40.1172L36.3377 39.9237C36.6741 39.8869 36.9759 39.5815 37.0088 39.2445L37.2779 36.4855C37.772 36.2787 38.2391 36.0242 38.6725 35.7254L41.1385 36.9788C41.4398 37.1317 41.8602 37.0412 42.0715 36.7781L43.1853 35.3905C43.3974 35.1264 43.3949 34.6972 43.1796 34.4362L41.4367 32.3164C41.6434 31.8207 41.7994 31.2999 41.8994 30.7618L44.4978 29.9145C44.8189 29.8095 45.0526 29.4487 45.0158 29.1123L44.8223 27.3432C44.7855 27.0068 44.4801 26.7051 44.1431 26.6721L44.1421 26.6713ZM34.7505 33.61C32.4199 33.865 30.3242 32.1827 30.0692 29.8521C29.8142 27.5214 31.4965 25.4257 33.8272 25.1708C36.1578 24.9158 38.2535 26.5981 38.5085 28.9287C38.7635 31.2594 37.0811 33.3551 34.7505 33.61Z" fill="#41CC96"/>
<path d="M53.2965 43.6281C54.6955 43.475 55.6753 42.1624 55.5519 40.8185C55.475 39.9803 55.0121 39.172 54.5937 38.4837C54.0697 37.6192 54.5007 36.7315 55.4866 36.6236L58.716 36.2703C59.2327 36.2138 59.6968 36.5863 59.7533 37.103L61.1916 50.2484C61.2481 50.7651 60.8755 51.2292 60.3588 51.2857L48.0544 52.632C47.5377 52.6885 47.0736 52.3159 47.0171 51.7993L46.6177 48.1489C46.5098 47.1621 45.6211 46.7313 44.7577 47.2561C44.0693 47.6735 43.2611 48.1373 42.4228 48.2142C41.0781 48.3377 39.7662 47.357 39.6132 45.9588C39.4602 44.5597 40.5299 43.3193 41.8686 43.1492C42.7037 43.043 43.593 43.3202 44.3555 43.5798C45.3128 43.9045 46.0863 43.2918 45.9784 42.3059L45.5791 38.6555C45.5225 38.1389 45.8951 37.6748 46.4118 37.6182L49.6412 37.2649C50.628 37.1569 51.2408 37.9314 50.9151 38.8879C50.6564 39.6503 50.3783 40.5396 50.4845 41.3747C50.6546 42.7143 51.8959 43.7831 53.2941 43.6301" fill="#41CC96"/>
<path d="M48.3901 10.2723C48.237 8.87322 46.9244 7.89343 45.5805 8.01689C44.7422 8.09377 43.934 8.55667 43.2456 8.97502C42.3812 9.49906 41.4935 9.06809 41.3856 8.08218L41.0321 4.85103C40.9755 4.33436 41.3481 3.87025 41.8648 3.81372L55.0102 2.37548C55.5269 2.31895 55.991 2.69152 56.0475 3.2082L57.3938 15.5126C57.4503 16.0293 57.0777 16.4934 56.561 16.5499L52.9107 16.9493C51.9239 17.0573 51.493 17.9459 52.0178 18.8094C52.4353 19.4978 52.8991 20.306 52.976 21.1443C53.0995 22.4889 52.1188 23.8008 50.7206 23.9538C49.3215 24.1069 48.0811 23.0371 47.911 21.6984C47.8048 20.8633 48.082 19.9741 48.3416 19.2116C48.6663 18.2543 48.0536 17.4807 47.0677 17.5886L43.4173 17.988C42.9007 18.0445 42.4366 17.6719 42.38 17.1553L42.0267 13.9258C41.9187 12.9391 42.6931 12.3262 43.6497 12.6519C44.4121 12.9107 45.3014 13.1887 46.1365 13.0825C47.4761 12.9124 48.5449 11.6712 48.3919 10.273" fill="white"/>
<path d="M53.2965 43.6281C54.6955 43.475 55.6753 42.1624 55.5519 40.8185C55.475 39.9803 55.0121 39.172 54.5937 38.4837C54.0697 37.6192 54.5007 36.7315 55.4866 36.6236L58.716 36.2703C59.2327 36.2138 59.6968 36.5863 59.7533 37.103L61.1916 50.2484C61.2481 50.7651 60.8755 51.2292 60.3588 51.2857L48.0544 52.632C47.5377 52.6885 47.0736 52.3159 47.0171 51.7993L46.6177 48.1489C46.5098 47.1621 45.6211 46.7313 44.7577 47.2561C44.0693 47.6735 43.2611 48.1373 42.4228 48.2142C41.0781 48.3377 39.7662 47.357 39.6132 45.9588C39.4602 44.5597 40.5299 43.3193 41.8686 43.1492C42.7037 43.043 43.593 43.3202 44.3555 43.5798C45.3128 43.9045 46.0863 43.2918 45.9784 42.3059L45.5791 38.6555C45.5225 38.1389 45.8951 37.6748 46.4118 37.6182L49.6412 37.2649C50.628 37.1569 51.2408 37.9314 50.9151 38.8879C50.6564 39.6503 50.3783 40.5396 50.4845 41.3747C50.6546 42.7143 51.8959 43.7831 53.2941 43.6301" stroke="#604B8C" stroke-width="1.34234" stroke-linecap="round" stroke-linejoin="round"/>
<path d="M56.68 9.00482L57.392 15.5128C57.4486 16.0295 57.076 16.4936 56.5593 16.5502L52.909 16.9495C51.9222 17.0575 51.4913 17.9461 52.0161 18.8096C52.4336 19.498 52.8974 20.3062 52.9742 21.1445C53.0978 22.4892 52.1171 23.801 50.7188 23.954C49.3198 24.1071 48.0793 23.0374 47.9093 21.6986C47.8031 20.8635 48.0803 19.9743 48.3399 19.2118C48.6646 18.2545 48.0519 17.4809 47.066 17.5888L43.4156 17.9882C42.8989 18.0447 42.4348 17.6722 42.3783 17.1555L42.025 13.9261C41.917 12.9393 42.6914 12.3265 43.6479 12.6521C44.4104 12.9109 45.2997 13.1889 46.1348 13.0827C47.4744 12.9126 48.5432 11.6714 48.3902 10.2732" stroke="#604B8C" stroke-width="1.34234" stroke-linecap="round" stroke-linejoin="round"/>
<path d="M48.3901 10.2723C48.237 8.87322 46.9244 7.89343 45.5805 8.01689C44.7422 8.09377 43.934 8.55667 43.2456 8.97502C42.3812 9.49906 41.4935 9.06809 41.3856 8.08218L41.0321 4.85103C40.9755 4.33436 41.3481 3.87025 41.8648 3.81372L55.0102 2.37548C55.5269 2.31895 55.991 2.69152 56.0475 3.2082L56.3153 5.65528" stroke="#604B8C" stroke-width="1.34234" stroke-linecap="round" stroke-linejoin="round"/>
<path d="M33.8271 25.1702C36.1578 24.9152 38.2535 26.5975 38.5084 28.9281C38.7634 31.2588 37.0811 33.3545 34.7505 33.6095C32.4198 33.8645 30.3241 32.1821 30.0692 29.8515C29.9592 28.8466 30.2092 27.8844 30.7173 27.0956" stroke="#604B8C" stroke-width="1.34234" stroke-linecap="round" stroke-linejoin="round"/>
<path d="M24.4354 32.1085L27.1556 32.3739C27.3695 32.8777 27.6345 33.3524 27.9435 33.7917L26.7002 36.2382C26.5473 36.5395 26.6378 36.96 26.9009 37.1712L28.2885 38.2851C28.5526 38.4971 28.9818 38.4947 29.2428 38.2793L31.3794 36.5224C31.8671 36.7195 32.3783 36.8679 32.9054 36.9629L33.7646 39.5984C33.8697 39.9204 34.2304 40.1533 34.5668 40.1165L36.3359 39.9229C36.6723 39.8861 36.9741 39.5807 37.007 39.2437L37.276 36.4848C37.7701 36.2779 38.2372 36.0234 38.6707 35.7246L41.1366 36.978C41.4379 37.131 41.8584 37.0405 42.0696 36.7773L43.1835 35.3898C43.3955 35.1256 43.3931 34.6964 43.1777 34.4355L41.4348 32.3156C41.6416 31.8199 41.7976 31.2992 41.8976 30.761L44.496 29.9137C44.8179 29.8086 45.0508 29.448 45.014 29.1116L44.8204 27.3425C44.7836 27.0061 44.4783 26.7043 44.1412 26.6713L41.4519 26.4087C41.2386 25.8865 40.9725 25.3936 40.6583 24.9391L41.8764 22.5416C42.0294 22.2403 41.9389 21.8199 41.6757 21.6086L40.2882 20.4948C40.024 20.2827 39.5948 20.2852 39.3338 20.5005L37.2733 22.195C36.7527 21.9762 36.2043 21.8145 35.6381 21.714L34.813 19.1822C34.7079 18.8602 34.3472 18.6273 34.0108 18.6641L32.2417 18.8577C31.9053 18.8945 31.6035 19.1999 31.5706 19.5369L31.3124 22.1873C30.7805 22.4079 30.2809 22.6842 29.8199 23.0105L27.4417 21.8016C27.1404 21.6487 26.72 21.7392 26.5087 22.0023L25.3949 23.3899C25.1829 23.654 25.1853 24.0832 25.4006 24.3442L27.1084 26.4216C26.8999 26.9341 26.7468 27.4729 26.6514 28.0289L24.0816 28.8669C23.7597 28.972 23.5268 29.3326 23.5636 29.669L23.7572 31.4382C23.794 31.7746 24.0993 32.0763 24.4364 32.1093L24.4354 32.1085Z" stroke="#604B8C" stroke-width="1.34234" stroke-linecap="round" stroke-linejoin="round"/>
<path d="M52.3374 34.8631L52.1982 33.5908" stroke="#604B8C" stroke-width="1.34234" stroke-linecap="round" stroke-linejoin="round"/>
<path d="M51.9384 31.2166L51.7992 29.9443" stroke="#604B8C" stroke-width="1.34234" stroke-linecap="round" stroke-linejoin="round"/>
<path d="M51.5389 27.5643L51.3997 26.292" stroke="#604B8C" stroke-width="1.34234" stroke-linecap="round" stroke-linejoin="round"/>
<path d="M19.6934 48.4587C19.8464 49.8578 21.1591 50.8376 22.5029 50.7141C23.3412 50.6372 24.1495 50.1743 24.8378 49.756C25.7023 49.2319 26.59 49.6629 26.6979 50.6488L27.0512 53.8782C27.1077 54.3949 26.7351 54.859 26.2185 54.9155L13.0739 56.3537C12.5572 56.4102 12.0931 56.0376 12.0366 55.521L10.6904 43.2165C10.6338 42.6999 11.0064 42.2358 11.5231 42.1792L15.1734 41.7798C16.1602 41.6719 16.5911 40.7833 16.0663 39.9198C15.6488 39.2314 15.185 38.4232 15.1082 37.5849C14.9846 36.2402 15.9653 34.9283 17.3636 34.7754C18.7626 34.6223 20.0031 35.692 20.1731 37.0308C20.2793 37.8658 20.0021 38.7551 19.7425 39.5176C19.4178 40.4749 20.0305 41.2484 21.0164 41.1406L24.6668 40.7412C25.1835 40.6847 25.6476 41.0572 25.7041 41.5739L26.0574 44.8033C26.1654 45.7901 25.391 46.4029 24.4345 46.0772C23.672 45.8185 22.7827 45.5404 21.9476 45.6466C20.608 45.8168 19.5393 47.058 19.6922 48.4562" fill="#CCBCF1"/>
<path d="M19.6934 48.4587C19.8464 49.8578 21.1591 50.8376 22.5029 50.7141C23.3412 50.6372 24.1495 50.1743 24.8378 49.756C25.7023 49.2319 26.59 49.6629 26.6979 50.6488L27.0512 53.8782C27.1077 54.3949 26.7351 54.859 26.2185 54.9155L13.0739 56.3537C12.5572 56.4102 12.0931 56.0376 12.0366 55.521L10.6904 43.2165C10.6338 42.6999 11.0064 42.2358 11.5231 42.1792L15.1734 41.7798C16.1602 41.6719 16.5911 40.7833 16.0663 39.9198C15.6488 39.2314 15.185 38.4232 15.1082 37.5849C14.9846 36.2402 15.9653 34.9283 17.3636 34.7754C18.7626 34.6223 20.0031 35.692 20.1731 37.0308C20.2793 37.8658 20.0021 38.7551 19.7425 39.5176C19.4178 40.4749 20.0305 41.2484 21.0164 41.1406L24.6668 40.7412C25.1835 40.6846 25.6476 41.0572 25.7041 41.5739L26.0574 44.8033C26.1654 45.7901 25.391 46.4029 24.4345 46.0772C23.672 45.8185 22.7827 45.5404 21.9476 45.6466C20.608 45.8168 19.5393 47.058 19.6922 48.4562" stroke="#604B8C" stroke-width="1.34234" stroke-linecap="round" stroke-linejoin="round"/>
<path d="M28.4579 47.5L29.7301 47.3608" stroke="#604B8C" stroke-width="1.34234" stroke-linecap="round" stroke-linejoin="round"/>
<path d="M32.1057 47.1006L33.3771 46.9615" stroke="#604B8C" stroke-width="1.34234" stroke-linecap="round" stroke-linejoin="round"/>
<path d="M35.7569 46.7012L37.0291 46.562" stroke="#604B8C" stroke-width="1.34234" stroke-linecap="round" stroke-linejoin="round"/>
<path d="M39.7006 10.9829L38.4283 11.1221" stroke="#604B8C" stroke-width="1.34234" stroke-linecap="round" stroke-linejoin="round"/>
<path d="M36.0537 11.3823L34.7814 11.5215" stroke="#604B8C" stroke-width="1.34234" stroke-linecap="round" stroke-linejoin="round"/>
<path d="M32.4016 11.7817L31.1293 11.9209" stroke="#604B8C" stroke-width="1.34234" stroke-linecap="round" stroke-linejoin="round"/>
<path d="M14.862 14.8561C13.463 15.0092 12.4832 16.3219 12.6066 17.6657C12.6835 18.504 13.1464 19.3123 13.5648 20.0006C14.0888 20.865 13.6578 21.7528 12.6719 21.8606L9.44165 22.2141C8.92497 22.2706 8.46086 21.898 8.40433 21.3813L6.96619 8.23677C6.90966 7.7201 7.28223 7.25599 7.79891 7.19946L20.1033 5.85324C20.62 5.79671 21.0841 6.16928 21.1406 6.68595L21.54 10.3363C21.648 11.3231 22.5366 11.754 23.4001 11.2291C24.0885 10.8117 24.8967 10.3479 25.735 10.271C27.0797 10.1475 28.3915 11.1282 28.5445 12.5264C28.6976 13.9255 27.6278 15.1659 26.2891 15.336C25.454 15.4422 24.5648 15.165 23.8023 14.9054C22.845 14.5807 22.0714 15.1934 22.1793 16.1793L22.5787 19.8297C22.6352 20.3463 22.2627 20.8104 21.746 20.867L18.5166 21.2203C17.5298 21.3283 16.917 20.5538 17.2426 19.5973C17.5014 18.8349 17.7794 17.9456 17.6732 17.1105C17.5031 15.7709 16.2619 14.7021 14.8637 14.8551" fill="#BEEFD9"/>
<path d="M14.862 14.8561C13.463 15.0092 12.4832 16.3219 12.6066 17.6657C12.6835 18.504 13.1464 19.3123 13.5648 20.0006C14.0888 20.865 13.6578 21.7528 12.6719 21.8606L9.44165 22.2141C8.92497 22.2706 8.46086 21.898 8.40433 21.3813L6.96619 8.23677C6.90966 7.7201 7.28223 7.25599 7.79891 7.19946L20.1033 5.85324C20.62 5.79671 21.0841 6.16928 21.1406 6.68595L21.54 10.3363C21.648 11.3231 22.5366 11.754 23.4001 11.2291C24.0885 10.8117 24.8967 10.3479 25.735 10.271C27.0797 10.1475 28.3915 11.1282 28.5445 12.5264C28.6976 13.9255 27.6279 15.1659 26.2891 15.336C25.454 15.4422 24.5648 15.165 23.8023 14.9054C22.845 14.5807 22.0714 15.1934 22.1793 16.1793L22.5787 19.8297C22.6352 20.3463 22.2627 20.8104 21.746 20.867L18.5166 21.2203C17.5298 21.3283 16.917 20.5538 17.2426 19.5973C17.5014 18.8349 17.7794 17.9456 17.6732 17.1105C17.5031 15.7709 16.2619 14.7021 14.8637 14.8551" stroke="#604B8C" stroke-width="1.34234" stroke-linecap="round" stroke-linejoin="round"/>
<path d="M15.821 23.6201L15.9602 24.8924" stroke="#604B8C" stroke-width="1.34234" stroke-linecap="round" stroke-linejoin="round"/>
<path d="M16.2201 27.2676L16.3592 28.539" stroke="#604B8C" stroke-width="1.34234" stroke-linecap="round" stroke-linejoin="round"/>
<path d="M16.6196 30.9189L16.7588 32.1912" stroke="#604B8C" stroke-width="1.34234" stroke-linecap="round" stroke-linejoin="round"/>
</g>
<defs>
<clipPath id="clip0_1917_3759">
<rect width="50.78" height="50.8815" fill="white" transform="translate(6.02243 6.71875) rotate(-6.24387)"/>
</clipPath>
</defs>
</svg>
