<svg width="71" height="60" viewBox="0 0 71 60" fill="none" xmlns="http://www.w3.org/2000/svg">
<rect x="16.7684" y="14.3154" width="44.1844" height="42.7818" rx="7.01341" transform="rotate(-14.6967 16.7684 14.3154)" fill="#CCBDF1"/>
<path d="M11.8319 56.2871C14.8682 56.2871 17.3297 53.8256 17.3297 50.7893C17.3297 47.7529 14.8682 45.2915 11.8319 45.2915C8.79555 45.2915 6.33411 47.7529 6.33411 50.7893C6.33411 53.8256 8.79555 56.2871 11.8319 56.2871Z" fill="#CCBCF1"/>
<path d="M16.3669 17.4498L16.8667 16.0018C17.0798 15.3844 17.7707 15.0684 18.3808 15.3183C19.4612 15.7519 20.3138 16.6119 20.7474 17.685C20.9973 18.295 20.6813 18.9859 20.0639 19.1991L18.616 19.6989" fill="#CCBCF1"/>
<path d="M29.0088 4.80762L27.5609 5.30742C26.9435 5.52057 26.6274 6.21147 26.8773 6.82152C27.311 7.90196 28.1709 8.75456 29.244 9.18821C29.8541 9.43811 30.545 9.12206 30.7581 8.50466L31.2579 7.05672" fill="#CCBCF1"/>
<path d="M49.6476 40.3081L50.6325 41.293C53.0874 43.7479 53.2711 47.1289 51.0735 49.3339C49.6476 50.7598 47.891 51.8623 44.8775 50.9288L41.864 49.5176C39.5928 48.1579 36.8513 46.3498 34.4405 44.7548C33.0734 43.8508 31.8239 43.0276 30.861 42.4176C25.4955 39.0219 20.7401 39.5217 16.3227 43.939L14.544 45.7177L16.7637 47.9374L18.5424 46.1587C20.9091 43.792 24.0329 41.8075 29.1852 45.0709C30.1334 45.6736 31.3608 46.4821 32.7132 47.3714C35.1534 48.9811 37.9244 50.8112 40.2543 52.2077C45.4655 55.3241 49.7358 55.111 53.2932 51.5462C56.7256 48.1138 56.5345 42.7483 52.8522 39.066L51.8673 38.0811" fill="#BEEFD9"/>
<path d="M41.276 6.41018C39.5414 4.38158 37.7333 3.20558 35.8002 2.83073C33.6026 2.40443 31.3167 3.07328 29.0088 4.80788L31.2579 7.05697C32.6985 6.06473 33.9995 5.68253 35.2049 5.91773C37.013 6.26318 38.8872 8.01247 40.7762 11.1068C43.9881 16.3768 48.523 28.2617 49.2948 32.6644C49.7799 35.4206 49.0743 36.4349 48.5304 36.9788C47.9277 37.5815 46.9722 38.2283 44.2159 37.7432C39.8207 36.9714 27.9284 32.4291 22.6584 29.2246C19.5641 27.3356 17.8148 25.4614 17.4693 23.6533C17.2341 22.4479 17.6163 21.1469 18.6086 19.7063L16.3595 17.4572C14.6249 19.7651 13.9634 22.051 14.3823 24.2486C14.9115 27.0049 17.0798 29.5112 21.0194 31.9073C26.6862 35.3618 38.9681 40.0143 43.6647 40.8375C46.9281 41.4108 48.9126 41.0286 50.7427 39.1985C52.5729 37.3683 52.9551 35.3838 52.3818 32.1204C51.5586 27.4238 46.8987 15.142 43.4516 9.47512" fill="#BEEFD9"/>
<path d="M44.8775 50.9215C47.891 51.8623 49.6403 50.7598 51.0735 49.3266C53.2785 47.1216 53.0948 43.7406 50.6325 41.2857L49.6476 40.3008" stroke="#604B8C" stroke-width="1.41855" stroke-linecap="round" stroke-linejoin="round"/>
<path d="M14.544 45.718L16.3227 43.9394C20.7401 39.522 25.4955 39.0222 30.861 42.4179C31.8239 43.028 33.066 43.8511 34.4405 44.7552C36.8586 46.3501 39.5928 48.1582 41.864 49.518" stroke="#604B8C" stroke-width="1.41855" stroke-linecap="round" stroke-linejoin="round"/>
<path d="M51.8673 38.0884L52.8522 39.0733C56.5345 42.7556 56.7183 48.1211 53.2932 51.5536C49.7285 55.1183 45.4655 55.3315 40.2543 52.2151C37.9244 50.8186 35.1534 48.9884 32.7132 47.3788C31.3608 46.4894 30.1334 45.6736 29.1852 45.0782C24.0329 41.8148 20.9165 43.7993 18.5424 46.166L16.7637 47.9447" stroke="#604B8C" stroke-width="1.41855" stroke-linecap="round" stroke-linejoin="round"/>
<path d="M11.8319 56.2871C14.8682 56.2871 17.3297 53.8256 17.3297 50.7893C17.3297 47.7529 14.8682 45.2915 11.8319 45.2915C8.79555 45.2915 6.33411 47.7529 6.33411 50.7893C6.33411 53.8256 8.79555 56.2871 11.8319 56.2871Z" stroke="#604B8C" stroke-width="1.41855" stroke-linecap="round" stroke-linejoin="round"/>
<path d="M13.662 48.959C14.6763 49.9733 14.6763 51.6123 13.662 52.6193C12.6477 53.6262 11.0087 53.6336 10.0017 52.6193C8.9948 51.605 8.98745 49.9659 10.0017 48.959" stroke="#604B8C" stroke-width="1.41855" stroke-linecap="round" stroke-linejoin="round"/>
<path d="M47.3544 17.3467C49.2066 21.9404 49.7137 27.3941 44.3335 32.7743C38.9534 38.1545 33.4997 37.6474 28.9059 35.7952" stroke="#604B8C" stroke-width="1.41855" stroke-linecap="round" stroke-linejoin="round"/>
<path d="M41.276 6.41018C39.5414 4.38158 37.7333 3.20558 35.8002 2.83073C33.6026 2.40443 31.3167 3.07328 29.0088 4.80788L31.2579 7.05698C32.6985 6.06473 33.9995 5.68253 35.2049 5.91773C37.013 6.26318 38.8872 8.01247 40.7762 11.1068C43.9881 16.3768 48.523 28.2617 49.2948 32.6644C49.7799 35.4206 49.0743 36.4349 48.5304 36.9788C47.9277 37.5815 46.9722 38.2283 44.2159 37.7432C39.8207 36.9714 27.9284 32.4292 22.6584 29.2246C19.5641 27.3356 17.8148 25.4614 17.4693 23.6533C17.2341 22.4479 17.6163 21.1469 18.6086 19.7063L16.3595 17.4572C14.6249 19.7651 13.9634 22.051 14.3823 24.2486C14.9115 27.0049 17.0798 29.5112 21.0194 31.9073C26.6862 35.3618 38.9681 40.0143 43.6647 40.8375C46.9281 41.4108 48.9126 41.0286 50.7427 39.1985C52.5729 37.3683 52.9551 35.3838 52.3818 32.1204C51.5586 27.4238 46.8987 15.142 43.4516 9.47512" stroke="#604B8C" stroke-width="1.41855" stroke-linecap="round" stroke-linejoin="round"/>
<path d="M16.3669 17.4498L16.8667 16.0018C17.0798 15.3844 17.7707 15.0684 18.3808 15.3183C19.4612 15.7519 20.3138 16.6119 20.7474 17.685C20.9973 18.295 20.6813 18.9859 20.0639 19.1991L18.616 19.6989" stroke="#604B8C" stroke-width="1.41855" stroke-linecap="round" stroke-linejoin="round"/>
<path d="M29.0088 4.80762L27.5609 5.30742C26.9435 5.52057 26.6274 6.21147 26.8773 6.82152C27.311 7.90196 28.1709 8.75456 29.244 9.18821C29.8541 9.43811 30.545 9.12206 30.7581 8.50466L31.2579 7.05672" stroke="#604B8C" stroke-width="1.41855" stroke-linecap="round" stroke-linejoin="round"/>
</svg>
