<svg width="71" height="60" viewBox="0 0 71 60" fill="none" xmlns="http://www.w3.org/2000/svg">
<rect x="14.9351" y="16" width="44.1844" height="42.7818" rx="7.01341" transform="rotate(-14.6967 14.9351 16)" fill="#CCBDF1"/>
<path d="M52.1965 51.3984L14.8759 57.3536L14.498 54.9854L46.8291 44.0555C46.3621 44.9806 46.1707 46.0568 46.3466 47.1593C46.7911 49.9451 49.4099 51.844 52.1966 51.3993" fill="#CCBDF1"/>
<path d="M15.6701 10.7192L52.9907 4.76391L53.3686 7.13215L21.0375 18.062C21.5044 17.1369 21.6959 16.0608 21.5199 14.9582C21.0754 12.1724 18.4566 10.2736 15.6699 10.7183" fill="#CCBDF1"/>
<path d="M17.4031 54.0009L46.8289 44.0546C46.362 44.9797 46.1705 46.0558 46.3465 47.1584C46.791 49.9442 49.4098 51.843 52.1965 51.3984C54.9832 50.9537 56.8811 48.3351 56.4364 45.5483L50.4636 8.11777L21.0378 18.0641C21.5047 17.139 21.6962 16.0629 21.5202 14.9603C21.0757 12.1745 18.4569 10.2757 15.6702 10.7204C12.8835 11.165 10.9856 13.7837 11.4303 16.5704L17.4033 54.0019" fill="white"/>
<path d="M40.4201 11.51L21.0376 18.0627C21.5046 17.1376 21.696 16.0614 21.5201 14.9588C21.0756 12.1731 18.4568 10.2742 15.6701 10.7189C12.8834 11.1636 10.9854 13.7822 11.4301 16.5689L17.4031 54.0004" stroke="#604B8C" stroke-width="1.46006" stroke-linecap="round" stroke-linejoin="round"/>
<path d="M15.6701 10.7192L52.9907 4.76395L53.3687 7.13313L43.5042 10.4677" stroke="#604B8C" stroke-width="1.46006" stroke-linecap="round" stroke-linejoin="round"/>
<path d="M38.4512 53.5916L14.8759 57.3535L14.498 54.9852L46.8291 44.0553C46.3621 44.9805 46.1707 46.0566 46.3466 47.1592C46.7911 49.945 49.4099 51.8438 52.1966 51.3991C54.9833 50.9544 56.8813 48.3358 56.4366 45.5491L50.4636 8.11761" stroke="#604B8C" stroke-width="1.46006" stroke-linecap="round" stroke-linejoin="round"/>
<path d="M52.1965 51.3977L41.5678 53.0938" stroke="#604B8C" stroke-width="1.46006" stroke-linecap="round" stroke-linejoin="round"/>
<path d="M35.742 42.6755C42.1057 41.6601 46.4413 35.6781 45.4259 29.3144C44.4104 22.9507 38.4284 18.6151 32.0647 19.6306C25.7011 20.646 21.3655 26.628 22.3809 32.9917C23.3964 39.3554 29.3784 43.691 35.742 42.6755Z" fill="#BEEFD9"/>
<path d="M39.7749 27.9695L35.8325 28.5986L35.2034 24.6561L30.822 25.3553L31.4511 29.2977L27.5087 29.9268L28.2078 34.3082L32.1503 33.6791L32.7794 37.6215L37.1607 36.9224L36.5317 32.9799L40.4741 32.3508L39.7749 27.9695Z" fill="#41CC96"/>
<path d="M40.9596 21.7789C43.3152 23.5324 45.015 26.1705 45.5142 29.2993C46.5297 35.6631 42.1942 41.6449 35.8304 42.6604C29.4666 43.6759 23.4848 39.3404 22.4693 32.9766C21.4538 26.6128 25.7893 20.6309 32.1531 19.6154C33.7441 19.3616 35.311 19.4422 36.7825 19.8057" stroke="#604B8C" stroke-width="1.46006" stroke-linecap="round" stroke-linejoin="round"/>
<path d="M39.7749 27.9695L35.8325 28.5986L35.2034 24.6561L30.822 25.3553L31.4511 29.2977L27.5087 29.9268L28.2078 34.3082L32.1503 33.6791L32.7794 37.6215L37.1607 36.9224L36.5317 32.9799L40.4741 32.3508L39.7749 27.9695Z" stroke="#604B8C" stroke-width="1.46006" stroke-linecap="round" stroke-linejoin="round"/>
</svg>
