<svg width="29" height="28" viewBox="0 0 29 28" fill="none" xmlns="http://www.w3.org/2000/svg">
<rect width="23.0846" height="22.3518" rx="3.66423" transform="matrix(0.967282 -0.253703 0.253702 0.967282 0 7)" fill="#BEEFD9"/>
<path d="M18.6589 10.6099H16.2388V8.18975C16.2388 7.93741 16.0323 7.73096 15.78 7.73096H13.2796C13.0272 7.73096 12.8208 7.93741 12.8208 8.18975V10.6099H10.4007C10.1483 10.6099 9.94189 10.8163 9.94189 11.0686V13.569C9.94189 13.8214 10.1483 14.0278 10.4007 14.0278H12.8208V16.4479C12.8208 16.7003 13.0272 16.9067 13.2796 16.9067H15.78C16.0323 16.9067 16.2388 16.7003 16.2388 16.4479V14.0278H18.6589C18.9112 14.0278 19.1177 13.8214 19.1177 13.569V11.0686C19.1177 10.8163 18.9112 10.6099 18.6589 10.6099Z" fill="#047474"/>
<path d="M25.0622 12.5292C25.0622 6.71405 20.3443 2 14.5292 2C8.71405 2 4 6.71405 4 12.5292C4 17.2356 7.08917 21.2194 11.3483 22.569L13.3134 25.9717C13.8563 26.9084 15.2097 26.9084 15.7488 25.9717L17.7139 22.569C21.973 21.2194 25.0622 17.2356 25.0622 12.5292ZM14.533 19.8239C10.5033 19.8239 7.23828 16.5589 7.23828 12.5292C7.23828 8.4995 10.5033 5.23828 14.5292 5.23828C18.5551 5.23828 21.8239 8.50332 21.8239 12.533C21.8239 16.5627 18.5589 19.8277 14.5292 19.8277L14.533 19.8239Z" fill="#047474"/>
</svg>
