<svg width="125" height="124" viewBox="0 0 125 124" fill="none" xmlns="http://www.w3.org/2000/svg">
<g clip-path="url(#clip0_1514_13388)">
<rect width="87.8296" height="84.37" rx="14.8173" transform="matrix(0.967844 -0.251551 0.25587 0.966711 0.5 43)" fill="#BEEFD9"/>
<path d="M49.5418 19.6182H16.124V42.5041H49.5418V19.6182Z" fill="#BEEFD9"/>
<path d="M34.742 31.3594L49.5418 19.6182H16.124L30.9238 31.3594C32.0424 32.2459 33.6252 32.2459 34.7438 31.3594H34.742Z" fill="white"/>
<path d="M102.519 16.9521H89.4378C87.5062 16.9521 85.9404 18.518 85.9404 20.4495V46.0477C85.9404 47.9792 87.5062 49.545 89.4378 49.545H102.519C104.45 49.545 106.016 47.9792 106.016 46.0477V20.4495C106.016 18.518 104.45 16.9521 102.519 16.9521Z" fill="white"/>
<path d="M106.016 23.9893H85.9404V42.5057H106.016V23.9893Z" fill="#CCBCF1"/>
<path d="M104.725 78.2295H82.8167C80.777 78.2295 79.1235 79.883 79.1235 81.9226V92.6794C79.1235 94.719 80.777 96.3725 82.8167 96.3725H97.9011L103.342 101.813C103.853 102.325 104.725 101.962 104.725 101.24V96.3725C106.765 96.3725 108.418 94.719 108.418 92.6794V81.9226C108.418 79.883 106.765 78.2295 104.725 78.2295Z" fill="white"/>
<path d="M30.3239 94.3596C31.2739 95.3096 32.2964 96.14 33.377 96.8525L35.9987 94.229C37.2424 92.9853 39.0228 92.6028 40.7524 92.92C42.7903 93.2953 44.5018 93.6362 46.0809 93.9535C48.0789 94.356 49.4423 95.9351 49.5311 98.1162C49.571 99.097 49.5184 99.9401 49.3353 100.992C48.7189 104.516 46.0573 107.161 42.5346 106.955C36.3051 106.59 30.1788 104.028 25.4178 99.2675C20.6568 94.5064 18.095 88.382 17.7306 82.1506C17.5239 78.6279 20.1709 75.9664 23.6936 75.35C24.7434 75.1668 25.5882 75.1143 26.5691 75.1541C28.7502 75.2412 30.3293 76.6064 30.7318 78.6043C31.0491 80.1835 31.3899 81.8932 31.7652 83.9328C32.0843 85.6625 31.7 87.4429 30.4562 88.6866L27.8328 91.3083C28.5453 92.387 29.3757 93.4114 30.3257 94.3614" fill="#BEEFD9"/>
<path d="M20.7962 66.6715C23.3766 66.6715 25.4684 64.5797 25.4684 61.9993C25.4684 59.419 23.3766 57.3271 20.7962 57.3271C18.2158 57.3271 16.124 59.419 16.124 61.9993C16.124 64.5797 18.2158 66.6715 20.7962 66.6715Z" fill="#CCBCF1"/>
<path d="M104.203 66.6715C106.784 66.6715 108.876 64.5797 108.876 61.9993C108.876 59.419 106.784 57.3271 104.203 57.3271C101.623 57.3271 99.5312 59.419 99.5312 61.9993C99.5312 64.5797 101.623 66.6715 104.203 66.6715Z" fill="#CCBCF1"/>
<path d="M62.5003 108.376C65.0807 108.376 67.1725 106.284 67.1725 103.703C67.1725 101.123 65.0807 99.0312 62.5003 99.0312C59.9199 99.0312 57.8281 101.123 57.8281 103.703C57.8281 106.284 59.9199 108.376 62.5003 108.376Z" fill="#CCBCF1"/>
<path d="M62.5003 24.9684C65.0807 24.9684 67.1725 22.8766 67.1725 20.2962C67.1725 17.7158 65.0807 15.624 62.5003 15.624C59.9199 15.624 57.8281 17.7158 57.8281 20.2962C57.8281 22.8766 59.9199 24.9684 62.5003 24.9684Z" fill="#CCBCF1"/>
<path d="M62.4997 81.0756C73.0345 81.0756 81.5746 72.5355 81.5746 62.0007C81.5746 51.4659 73.0345 42.9258 62.4997 42.9258C51.9649 42.9258 43.4248 51.4659 43.4248 62.0007C43.4248 72.5355 51.9649 81.0756 62.4997 81.0756Z" fill="#41CC96"/>
<path d="M62.4997 81.0756C73.0345 81.0756 81.5746 72.5355 81.5746 62.0007C81.5746 51.4659 73.0345 42.9258 62.4997 42.9258C51.9649 42.9258 43.4248 51.4659 43.4248 62.0007C43.4248 72.5355 51.9649 81.0756 62.4997 81.0756Z" stroke="#604B8C" stroke-width="2.8" stroke-linecap="round" stroke-linejoin="round"/>
<path d="M67.3356 76.9867C66.0052 79.5481 64.3257 81.0756 62.4998 81.0756C58.1838 81.0756 54.6841 72.5355 54.6841 62.0007C54.6841 51.4659 58.1838 42.9258 62.4998 42.9258C66.8158 42.9258 70.3156 51.4659 70.3156 62.0007C70.3156 65.4122 69.9478 68.6155 69.306 71.3871" stroke="#604B8C" stroke-width="2.8" stroke-linecap="round" stroke-linejoin="round"/>
<path d="M43.4248 62.001H81.5746" stroke="#604B8C" stroke-width="2.8" stroke-linecap="round" stroke-linejoin="round"/>
<path d="M62.5 37.2956V30.0635" stroke="#604B8C" stroke-width="2.8" stroke-linecap="round" stroke-linejoin="round"/>
<path d="M62.5 93.9362V86.7041" stroke="#604B8C" stroke-width="2.8" stroke-linecap="round" stroke-linejoin="round"/>
<path d="M37.7956 62.001H30.5635" stroke="#604B8C" stroke-width="2.8" stroke-linecap="round" stroke-linejoin="round"/>
<path d="M94.4367 62.001H87.2046" stroke="#604B8C" stroke-width="2.8" stroke-linecap="round" stroke-linejoin="round"/>
<path d="M19.3358 66.8357C22.0066 66.8357 24.1716 64.6706 24.1716 61.9999C24.1716 59.3291 22.0066 57.1641 19.3358 57.1641C16.6651 57.1641 14.5 59.3291 14.5 61.9999C14.5 64.6706 16.6651 66.8357 19.3358 66.8357Z" stroke="#604B8C" stroke-width="2.8" stroke-linecap="round" stroke-linejoin="round"/>
<path d="M105.664 66.8357C108.335 66.8357 110.5 64.6706 110.5 61.9999C110.5 59.3291 108.335 57.1641 105.664 57.1641C102.993 57.1641 100.828 59.3291 100.828 61.9999C100.828 64.6706 102.993 66.8357 105.664 66.8357Z" stroke="#604B8C" stroke-width="2.8" stroke-linecap="round" stroke-linejoin="round"/>
<path d="M62.5004 110C65.1711 110 67.3362 107.835 67.3362 105.164C67.3362 102.493 65.1711 100.328 62.5004 100.328C59.8296 100.328 57.6646 102.493 57.6646 105.164C57.6646 107.835 59.8296 110 62.5004 110Z" stroke="#604B8C" stroke-width="2.8" stroke-linecap="round" stroke-linejoin="round"/>
<path d="M62.5004 23.6716C65.1711 23.6716 67.3362 21.5066 67.3362 18.8358C67.3362 16.1651 65.1711 14 62.5004 14C59.8296 14 57.6646 16.1651 57.6646 18.8358C57.6646 21.5066 59.8296 23.6716 62.5004 23.6716Z" stroke="#604B8C" stroke-width="2.8" stroke-linecap="round" stroke-linejoin="round"/>
<path d="M103.92 15.375H90.3811C88.3819 15.375 86.7612 16.9957 86.7612 18.9948V45.4895C86.7612 47.4887 88.3819 49.1094 90.3811 49.1094H103.92C105.919 49.1094 107.54 47.4887 107.54 45.4895V18.9948C107.54 16.9957 105.919 15.375 103.92 15.375Z" stroke="#604B8C" stroke-width="2.8" stroke-linecap="round" stroke-linejoin="round"/>
<path d="M92.5889 22.6592H107.541" stroke="#604B8C" stroke-width="2.8" stroke-linecap="round" stroke-linejoin="round"/>
<path d="M86.7622 41.8242H107.541" stroke="#604B8C" stroke-width="2.8" stroke-linecap="round" stroke-linejoin="round"/>
<path d="M49.0882 18.1338H14.5V41.8212H49.0882V18.1338Z" stroke="#604B8C" stroke-width="2.8" stroke-linecap="round" stroke-linejoin="round"/>
<path d="M14.5 18.1338L29.8181 30.2862C30.9759 31.2038 32.6141 31.2038 33.7719 30.2862L49.0882 18.1338" stroke="#604B8C" stroke-width="2.8" stroke-linecap="round" stroke-linejoin="round"/>
<path d="M14.5 41.8246L26.8194 27.9102" stroke="#604B8C" stroke-width="2.8" stroke-linecap="round" stroke-linejoin="round"/>
<path d="M39.4844 30.9764L36.769 27.9102" stroke="#604B8C" stroke-width="2.8" stroke-linecap="round" stroke-linejoin="round"/>
<path d="M49.0889 41.8244L42.9302 34.8662" stroke="#604B8C" stroke-width="2.8" stroke-linecap="round" stroke-linejoin="round"/>
<path d="M19.6011 57.1949C20.2109 51.6929 21.8548 46.5024 24.3337 41.8242" stroke="#604B8C" stroke-width="2.8" stroke-linecap="round" stroke-linejoin="round"/>
<path d="M103.725 49.1689C104.526 51.7492 105.093 54.4326 105.399 57.1949" stroke="#604B8C" stroke-width="2.8" stroke-linecap="round" stroke-linejoin="round"/>
<path d="M67.3057 19.1006C74.4102 19.8869 80.9949 22.3995 86.632 26.207" stroke="#604B8C" stroke-width="2.8" stroke-linecap="round" stroke-linejoin="round"/>
<path d="M49.0889 20.9602C51.8455 20.0595 54.7241 19.429 57.6946 19.1006" stroke="#604B8C" stroke-width="2.8" stroke-linecap="round" stroke-linejoin="round"/>
<path d="M106.204 78.7979H83.5281C81.417 78.7979 79.7056 80.5092 79.7056 82.6203V93.7538C79.7056 95.8649 81.417 97.5763 83.5281 97.5763H99.1408L104.772 103.208C105.301 103.737 106.204 103.362 106.204 102.615V97.5763C108.315 97.5763 110.026 95.8649 110.026 93.7538V82.6203C110.026 80.5092 108.315 78.7979 106.204 78.7979Z" stroke="#604B8C" stroke-width="2.8" stroke-linecap="round" stroke-linejoin="round"/>
<path d="M86.8366 97.6553C81.1544 101.542 74.4965 104.105 67.3057 104.901" stroke="#604B8C" stroke-width="2.8" stroke-linecap="round" stroke-linejoin="round"/>
<path d="M105.399 66.8066C104.933 71.0157 103.862 75.0408 102.274 78.7958" stroke="#604B8C" stroke-width="2.8" stroke-linecap="round" stroke-linejoin="round"/>
<path d="M87.7318 89.201C88.2552 89.201 88.6795 88.7767 88.6795 88.2533C88.6795 87.7299 88.2552 87.3057 87.7318 87.3057C87.2085 87.3057 86.7842 87.7299 86.7842 88.2533C86.7842 88.7767 87.2085 89.201 87.7318 89.201Z" fill="#604B8C" stroke="#604B8C" stroke-width="2.8" stroke-linecap="round" stroke-linejoin="round"/>
<path d="M94.8666 89.201C95.39 89.201 95.8142 88.7767 95.8142 88.2533C95.8142 87.7299 95.39 87.3057 94.8666 87.3057C94.3432 87.3057 93.9189 87.7299 93.9189 88.2533C93.9189 88.7767 94.3432 89.201 94.8666 89.201Z" fill="#604B8C" stroke="#604B8C" stroke-width="2.8" stroke-linecap="round" stroke-linejoin="round"/>
<path d="M102.003 89.201C102.526 89.201 102.95 88.7767 102.95 88.2533C102.95 87.7299 102.526 87.3057 102.003 87.3057C101.479 87.3057 101.055 87.7299 101.055 88.2533C101.055 88.7767 101.479 89.201 102.003 89.201Z" fill="#604B8C" stroke="#604B8C" stroke-width="2.8" stroke-linecap="round" stroke-linejoin="round"/>
<path d="M16.1626 82.857C15.9487 79.211 18.6884 76.4562 22.3345 75.8182C23.421 75.6287 24.2955 75.5742 25.3107 75.6155C27.5681 75.7056 29.2026 77.1186 29.6192 79.1866C29.9476 80.821 30.3004 82.5906 30.6888 84.7017C31.0191 86.4919 30.6212 88.3346 29.3339 89.6219L26.6186 92.3354C27.3561 93.4519 28.2155 94.5122 29.1988 95.4955" stroke="#604B8C" stroke-width="2.8" stroke-linecap="round" stroke-linejoin="round"/>
<path d="M29.1967 95.4932C30.18 96.4765 31.2383 97.336 32.3568 98.0735L35.0702 95.3581C36.3575 94.0708 38.2003 93.6749 39.9905 94.0033C42.0997 94.3917 43.8711 94.7445 45.5056 95.0729C47.5735 95.4895 48.9847 97.124 49.0766 99.3814C49.1179 100.397 49.0635 101.269 48.8739 102.358C48.2359 106.006 45.4812 108.743 41.8351 108.529C35.3873 108.152 29.0466 105.501 24.1188 100.573C20.8292 97.2835 18.553 93.3634 17.292 89.2031" stroke="#604B8C" stroke-width="2.8" stroke-linecap="round" stroke-linejoin="round"/>
<path d="M21.6465 75.966C20.6463 73.0423 19.9539 69.9761 19.6011 66.8066" stroke="#604B8C" stroke-width="2.8" stroke-linecap="round" stroke-linejoin="round"/>
<path d="M57.6941 104.899C54.6035 104.558 51.6123 103.888 48.7524 102.929" stroke="#604B8C" stroke-width="2.8" stroke-linecap="round" stroke-linejoin="round"/>
</g>
<defs>
<clipPath id="clip0_1514_13388">
<rect width="124" height="124" fill="white" transform="translate(0.5)"/>
</clipPath>
</defs>
</svg>
