<svg width="124" height="124" viewBox="0 0 124 124" fill="none" xmlns="http://www.w3.org/2000/svg">
<g clip-path="url(#clip0_4359_6760)">
<rect width="87.8296" height="84.37" rx="14.8173" transform="matrix(0.967844 -0.251551 0.25587 0.966711 10 43)" fill="#BEEFD9"/>
<path d="M27.3301 25.1182L109.749 43.8597L98.7714 92.1334L76.5056 105.645L12.3369 91.053L27.3301 25.1182Z" fill="white"/>
<path d="M73.0208 105.057C75.362 105.589 77.6919 104.123 78.2243 101.782L80.2833 92.7269C80.8732 90.1326 83.4555 88.5071 86.0498 89.097L95.1046 91.156C97.4458 91.6884 99.7757 90.2218 100.308 87.8806L99.9642 89.3929C99.6232 90.8925 98.2781 92.7911 96.9772 93.6099L79.627 104.531C78.3242 105.351 76.0327 105.742 74.533 105.401" fill="#BEEFD9"/>
<path d="M79.6295 104.532C78.3266 105.352 76.0351 105.742 74.5355 105.401L15.0658 91.8782C13.5662 91.5372 12.6178 90.0305 12.9588 88.5309L12.2401 91.6915C11.5577 94.6924 13.4549 97.7042 16.4541 98.3862L88.4603 114.76C91.4611 115.442 94.4729 113.545 95.1549 110.546L99.9647 89.3944C99.6237 90.8941 98.2786 92.7926 96.9777 93.6114L79.6275 104.533L79.6295 104.532Z" fill="#41CC96"/>
<path d="M108.075 28.5014L36.0706 12.128C33.0697 11.4456 30.0579 13.3428 29.3759 16.3421L25.9957 31.2071L108.911 50.0615L112.291 35.1965C112.973 32.1956 111.076 29.1838 108.077 28.5018L108.075 28.5014Z" fill="#CCBCF1"/>
<path d="M25.8717 31.7408L25.9211 31.7504" stroke="#604B8C" stroke-width="2.8" stroke-linecap="round" stroke-linejoin="round"/>
<path d="M29.7767 32.6043L106.925 49.6434" stroke="#604B8C" stroke-width="2.8" stroke-linecap="round" stroke-linejoin="round"/>
<path d="M108.856 50.0693L108.905 50.0805" stroke="#604B8C" stroke-width="2.8" stroke-linecap="round" stroke-linejoin="round"/>
<path d="M77.2713 51.5584L71.9309 50.344C70.927 50.1157 69.9282 50.7444 69.7 51.7483L68.4856 57.0887C68.2573 58.0926 68.886 59.0914 69.8899 59.3196L75.2303 60.534C76.2342 60.7623 77.233 60.1336 77.4612 59.1297L78.6756 53.7893C78.9039 52.7854 78.2752 51.7866 77.2713 51.5584Z" fill="#41CC96"/>
<path d="M41.1561 43.3465L35.8156 42.1321C34.8118 41.9038 33.813 42.5325 33.5847 43.5363L32.3703 48.8768C32.1421 49.8806 32.7708 50.8795 33.7746 51.1077L39.1151 52.3221C40.1189 52.5504 41.1177 51.9217 41.346 50.9178L42.5604 45.5774C42.7887 44.5735 42.1599 43.5747 41.1561 43.3465Z" stroke="#604B8C" stroke-width="2.8" stroke-linecap="round" stroke-linejoin="round"/>
<path d="M59.2127 47.4529L53.8723 46.2385C52.8685 46.0102 51.8696 46.639 51.6414 47.6428L50.427 52.9833C50.1987 53.9871 50.8274 54.9859 51.8313 55.2142L57.1717 56.4286C58.1756 56.6568 59.1744 56.0281 59.4026 55.0243L60.617 49.6838C60.8453 48.68 60.2166 47.6812 59.2127 47.4529Z" stroke="#604B8C" stroke-width="2.8" stroke-linecap="round" stroke-linejoin="round"/>
<path d="M77.2713 51.5584L71.9309 50.344C70.927 50.1157 69.9282 50.7444 69.7 51.7483L68.4856 57.0887C68.2573 58.0926 68.886 59.0914 69.8899 59.3196L75.2303 60.534C76.2342 60.7623 77.233 60.1336 77.4612 59.1297L78.6756 53.7893C78.9039 52.7854 78.2752 51.7866 77.2713 51.5584Z" stroke="#604B8C" stroke-width="2.8" stroke-linecap="round" stroke-linejoin="round"/>
<path d="M95.329 55.6648L89.9885 54.4504C88.9847 54.2222 87.9859 54.8509 87.7576 55.8547L86.5432 61.1952C86.3149 62.199 86.9436 63.1978 87.9475 63.4261L93.2879 64.6405C94.2918 64.8687 95.2906 64.24 95.5188 63.2362L96.7332 57.8957C96.9615 56.8919 96.3328 55.8931 95.329 55.6648Z" stroke="#604B8C" stroke-width="2.8" stroke-linecap="round" stroke-linejoin="round"/>
<path d="M37.2362 60.5886L31.8957 59.3742C30.8919 59.146 29.8931 59.7747 29.6648 60.7785L28.4504 66.119C28.2222 67.1228 28.8509 68.1216 29.8547 68.3499L35.1952 69.5643C36.199 69.7926 37.1978 69.1638 37.4261 68.16L38.6405 62.8195C38.8687 61.8157 38.24 60.8169 37.2362 60.5886Z" fill="#41CC96"/>
<path d="M37.2362 60.5886L31.8957 59.3742C30.8919 59.146 29.8931 59.7747 29.6648 60.7785L28.4504 66.119C28.2222 67.1228 28.8509 68.1216 29.8547 68.3499L35.1952 69.5643C36.199 69.7926 37.1978 69.1638 37.4261 68.16L38.6405 62.8195C38.8687 61.8157 38.24 60.8169 37.2362 60.5886Z" stroke="#604B8C" stroke-width="2.8" stroke-linecap="round" stroke-linejoin="round"/>
<path d="M55.2928 64.6951L49.9524 63.4807C48.9485 63.2524 47.9497 63.8811 47.7215 64.885L46.5071 70.2254C46.2788 71.2293 46.9075 72.2281 47.9113 72.4564L53.2518 73.6707C54.2556 73.899 55.2545 73.2703 55.4827 72.2665L56.6971 66.926C56.9254 65.9222 56.2967 64.9234 55.2928 64.6951Z" stroke="#604B8C" stroke-width="2.8" stroke-linecap="round" stroke-linejoin="round"/>
<path d="M73.3524 68.8015L68.0119 67.5871C67.0081 67.3589 66.0093 67.9876 65.781 68.9914L64.5666 74.3319C64.3384 75.3357 64.9671 76.3345 65.9709 76.5628L71.3114 77.7772C72.3152 78.0055 73.314 77.3767 73.5423 76.3729L74.7567 71.0324C74.9849 70.0286 74.3562 69.0298 73.3524 68.8015Z" stroke="#604B8C" stroke-width="2.8" stroke-linecap="round" stroke-linejoin="round"/>
<path d="M91.4081 72.907L86.0676 71.6926C85.0638 71.4643 84.065 72.0931 83.8367 73.0969L82.6223 78.4374C82.394 79.4412 83.0227 80.44 84.0266 80.6683L89.367 81.8827C90.3709 82.1109 91.3697 81.4822 91.5979 80.4784L92.8123 75.1379C93.0406 74.1341 92.4119 73.1353 91.4081 72.907Z" stroke="#604B8C" stroke-width="2.8" stroke-linecap="round" stroke-linejoin="round"/>
<path d="M33.3153 77.8299L27.9748 76.6155C26.971 76.3872 25.9722 77.0159 25.7439 78.0197L24.5295 83.3602C24.3013 84.364 24.93 85.3629 25.9338 85.5911L31.2743 86.8055C32.2781 87.0338 33.2769 86.4051 33.5052 85.4012L34.7196 80.0608C34.9478 79.0569 34.3191 78.0581 33.3153 77.8299Z" stroke="#604B8C" stroke-width="2.8" stroke-linecap="round" stroke-linejoin="round"/>
<path d="M51.3719 81.9353L46.0315 80.7209C45.0276 80.4927 44.0288 81.1214 43.8006 82.1252L42.5862 87.4657C42.3579 88.4695 42.9866 89.4683 43.9904 89.6966L49.3309 90.911C50.3347 91.1392 51.3336 90.5105 51.5618 89.5067L52.7762 84.1662C53.0045 83.1624 52.3758 82.1636 51.3719 81.9353Z" stroke="#604B8C" stroke-width="2.8" stroke-linecap="round" stroke-linejoin="round"/>
<path d="M61.4359 88.0888L61.8582 86.2317C62.0855 85.2319 63.0893 84.6 64.0891 84.8274L69.428 86.0414C70.4277 86.2687 71.0596 87.2726 70.8322 88.2723L69.6182 93.6112C69.3909 94.611 68.3871 95.2428 67.3873 95.0155L64.203 94.2914" stroke="#604B8C" stroke-width="2.8" stroke-linecap="round" stroke-linejoin="round"/>
<ellipse cx="60.2315" cy="93.3885" rx="1.25483" ry="1.25483" transform="rotate(12.8109 60.2315 93.3885)" fill="#604B8C"/>
<path d="M44.3124 24.5307C42.3872 24.0929 41.1821 22.1785 41.6199 20.2533L43.6138 11.4849C44.0516 9.55975 45.966 8.35468 47.8912 8.79245C49.8163 9.23022 51.0214 11.1446 50.5836 13.0698L50.0739 15.3113" stroke="#604B8C" stroke-width="2.8" stroke-linecap="round" stroke-linejoin="round"/>
<path d="M95.2782 36.1205C93.353 35.6828 92.148 33.7683 92.5857 31.8432L94.5796 23.0748C95.0174 21.1496 96.9318 19.9445 98.857 20.3823C100.782 20.8201 101.987 22.7345 101.549 24.6597L101.04 26.9012" stroke="#604B8C" stroke-width="2.8" stroke-linecap="round" stroke-linejoin="round"/>
<path d="M28.4652 94.9247L15.065 91.8776C13.5654 91.5366 12.617 90.0299 12.958 88.5303" stroke="#604B8C" stroke-width="2.8" stroke-linecap="round" stroke-linejoin="round"/>
<path d="M99.9661 89.392C99.6251 90.8916 98.28 92.7901 96.9791 93.609L79.629 104.53C78.3261 105.35 76.0346 105.741 74.535 105.4L35.1332 96.4403" stroke="#604B8C" stroke-width="2.8" stroke-linecap="round" stroke-linejoin="round"/>
<path d="M100.311 87.8806C99.7786 90.2218 97.4487 91.6884 95.1075 91.156L86.0528 89.097C83.4585 88.5071 80.8761 90.1326 80.2862 92.7269L78.2272 101.782C77.6948 104.123 75.3649 105.589 73.0237 105.057" stroke="#604B8C" stroke-width="2.8" stroke-linecap="round" stroke-linejoin="round"/>
<path d="M104.894 67.7233L95.1569 110.545C94.4745 113.546 91.4615 115.441 88.4623 114.759L16.4561 98.3854C13.4553 97.703 11.56 94.69 12.2421 91.6908L29.3759 16.3421C30.0583 13.3412 33.0713 11.446 36.0706 12.128L108.077 28.5018C111.078 29.1842 112.973 32.1972 112.291 35.1965L106.096 62.4398" stroke="#604B8C" stroke-width="2.8" stroke-linecap="round" stroke-linejoin="round"/>
</g>
<defs>
<clipPath id="clip0_4359_6760">
<rect width="124" height="124" fill="white"/>
</clipPath>
</defs>
</svg>
