<svg width="125" height="125" viewBox="0 0 125 125" fill="none" xmlns="http://www.w3.org/2000/svg">
<rect width="87.8296" height="84.37" rx="14.8173" transform="matrix(0.967844 -0.251551 0.25587 0.966711 9.5 32.6953)" fill="#BEEFD9"/>
<path d="M96.9741 54.5537C100.986 61.8098 102.229 70.5971 99.7549 79.1945C97.4458 87.21 92.313 93.6474 85.7471 97.7327" fill="#41CC96"/>
<path d="M96.9741 54.5537C100.986 61.8098 102.229 70.5971 99.7549 79.1945C97.4458 87.21 92.313 93.6474 85.7471 97.7327" stroke="#604B8C" stroke-width="2.8" stroke-linecap="round" stroke-linejoin="round"/>
<path d="M65.4112 77.9002L73.6983 49.121L95.6278 43.7188C98.2554 43.0716 100.601 45.5093 99.852 48.1104L83.3064 105.571C82.5571 108.172 79.2761 108.989 77.3937 107.043L61.6934 90.8055L63.6186 84.1191" fill="#BEEFD9"/>
<path d="M61.6942 90.8057L19.2195 78.5761C16.2979 77.735 14.6115 74.6847 15.4526 71.7611L24.4074 40.6585C25.2485 37.7369 28.2988 36.0505 31.2224 36.8916L32.6802 37.3122L73.6971 49.1232" fill="white"/>
<path d="M16.7341 67.3048L9.12278 65.1141C7.19954 64.5608 6.08888 62.5518 6.64217 60.6286L11.0256 45.406C11.5789 43.4827 13.5879 42.3721 15.5111 42.9254L23.1224 45.1161" fill="#CCBDF1"/>
<path d="M52.17 59.4783L49.0463 16.6953L31.2695 17.9938L34.3933 60.7768C34.7526 65.6849 39.0217 69.3742 43.9299 69.0148C48.838 68.6555 52.5273 64.3864 52.1679 59.4783H52.17Z" fill="#CCBDF1"/>
<path d="M65.4112 77.9002L73.6983 49.121L95.6278 43.7188C98.2554 43.0716 100.601 45.5093 99.852 48.1104L83.3064 105.571C82.5571 108.172 79.2761 108.989 77.3937 107.043L61.6934 90.8055L63.6186 84.1191" stroke="#604B8C" stroke-width="2.8" stroke-linecap="round" stroke-linejoin="round"/>
<path d="M16.7341 67.3048L9.12278 65.1141C7.19954 64.5608 6.08888 62.5518 6.64217 60.6286L11.0256 45.406C11.5789 43.4827 13.5879 42.3721 15.5111 42.9254L23.1224 45.1161" stroke="#604B8C" stroke-width="2.8" stroke-linecap="round" stroke-linejoin="round"/>
<path d="M109.568 82.0205L119.383 84.8462" stroke="#604B8C" stroke-width="2.8" stroke-linecap="round" stroke-linejoin="round"/>
<path d="M109.408 69.5273L118.347 64.5845" stroke="#604B8C" stroke-width="2.8" stroke-linecap="round" stroke-linejoin="round"/>
<path d="M103.021 91.7056L107.964 100.644" stroke="#604B8C" stroke-width="2.8" stroke-linecap="round" stroke-linejoin="round"/>
<path d="M52.17 59.4783L49.0463 16.6953L31.2695 17.9938L34.3933 60.7768C34.7526 65.6849 39.0217 69.3742 43.9299 69.0148C48.838 68.6555 52.5273 64.3864 52.1679 59.4783H52.17Z" stroke="#604B8C" stroke-width="2.8" stroke-linecap="round" stroke-linejoin="round"/>
<path d="M61.6942 90.8057L19.2195 78.5761C16.2979 77.735 14.6115 74.6847 15.4526 71.7611L24.4074 40.6585C25.2485 37.7369 28.2988 36.0505 31.2224 36.8916L32.6802 37.3122" stroke="#604B8C" stroke-width="2.8" stroke-linecap="round" stroke-linejoin="round"/>
<path d="M59.2949 44.9746L73.6968 49.1212" stroke="#604B8C" stroke-width="2.8" stroke-linecap="round" stroke-linejoin="round"/>
<path d="M43.2808 62.8205C44.7681 62.8205 45.9738 61.6148 45.9738 60.1275C45.9738 58.6402 44.7681 57.4346 43.2808 57.4346C41.7936 57.4346 40.5879 58.6402 40.5879 60.1275C40.5879 61.6148 41.7936 62.8205 43.2808 62.8205Z" fill="#604B8C"/>
</svg>
