<svg width="124" height="124" viewBox="0 0 124 124" fill="none" xmlns="http://www.w3.org/2000/svg">
<rect width="87.8296" height="84.37" rx="14.8173" transform="matrix(0.967844 -0.251551 0.25587 0.966711 9 32)" fill="#BEEFD9"/>
<path d="M17.4391 74.6666L22.6114 72.1882L29.3799 86.2279L24.2075 88.7063C22.3088 89.6161 20.0281 88.8185 19.1155 86.9256L15.6529 79.743C14.7403 77.8502 15.5404 75.5764 17.4391 74.6666Z" fill="#CCBDF1"/>
<path d="M52.1543 88.476L55.0591 86.5443C56.5734 85.5367 58.6205 85.9442 59.6295 87.454L61.7731 90.658C62.7837 92.1677 62.375 94.2085 60.8606 95.2145L57.9558 97.1462" fill="#CCBDF1"/>
<path d="M48.309 82.8311L60.2242 101.028C61.8866 103.568 61.1705 106.969 58.623 108.627C58.4186 108.76 58.2062 108.878 57.9921 108.981C55.5379 110.157 52.5302 109.365 51.0013 107.03L38.3232 87.6683" fill="#41CC96"/>
<path d="M83.5449 39.6324C88.2119 37.3974 93.8123 39.3564 96.0556 44.0092C98.2974 48.6619 96.3324 54.2452 91.6655 56.4818" fill="#CCBDF1"/>
<path d="M84.8907 60.4795L65.1896 19.6042C64.2514 17.6581 65.0738 15.3221 67.0258 14.3867C68.9779 13.4513 71.3211 14.2712 72.2593 16.2173L102.95 79.8928C103.888 81.8389 103.066 84.1749 101.114 85.1103C99.162 86.0456 96.8188 85.2258 95.8806 83.2796L87.2982 65.474" fill="#41CC96"/>
<path d="M95.3714 82.2241C95.3714 82.2241 73.8679 70.5858 55.1807 79.5383L42.7617 53.77C61.4505 44.8175 65.7715 20.8076 65.7715 20.8076L95.373 82.2225L95.3714 82.2241Z" fill="white"/>
<path d="M34.0862 57.9269L42.7604 53.7715L55.1793 79.5398L38.7371 87.4158C34.7911 89.3058 30.0565 87.65 28.1608 83.716L22.6071 72.1932C20.7113 68.2592 22.3721 63.5391 26.3181 61.6491L29.3275 60.2067" fill="#BEEFD9"/>
<path d="M34.0862 57.9269L42.7604 53.7715L55.1793 79.5398L38.7371 87.4158C34.7911 89.3058 30.0565 87.65 28.1608 83.716L22.6071 72.1932C20.7113 68.2592 22.3721 63.5391 26.3181 61.6491L29.3275 60.2067" stroke="#604B8C" stroke-width="2.8" stroke-linecap="round" stroke-linejoin="round"/>
<path d="M17.4391 74.6666L22.6114 72.1882L29.3799 86.2279L24.2075 88.7063C22.3088 89.6161 20.0281 88.8185 19.1155 86.9256L15.6529 79.743C14.7403 77.8502 15.5404 75.5764 17.4391 74.6666Z" stroke="#604B8C" stroke-width="2.8" stroke-linecap="round" stroke-linejoin="round"/>
<path d="M55.1807 79.5382C73.8695 70.5856 95.3714 82.2239 95.3714 82.2239" stroke="#604B8C" stroke-width="2.8" stroke-linecap="round" stroke-linejoin="round"/>
<path d="M42.7607 53.77C61.4496 44.8175 65.7705 20.8076 65.7705 20.8076" stroke="#604B8C" stroke-width="2.8" stroke-linecap="round" stroke-linejoin="round"/>
<path d="M84.8907 60.4795L65.1896 19.6042C64.2514 17.6581 65.0738 15.3221 67.0258 14.3867C68.9779 13.4513 71.3211 14.2712 72.2593 16.2173L102.95 79.8928C103.888 81.8389 103.066 84.1749 101.114 85.1103C99.162 86.0456 96.8188 85.2258 95.8806 83.2797L87.2982 65.474" stroke="#604B8C" stroke-width="2.8" stroke-linecap="round" stroke-linejoin="round"/>
<path d="M48.309 82.8311L60.2242 101.028C61.8866 103.568 61.1705 106.969 58.623 108.627C58.4186 108.76 58.2062 108.878 57.9921 108.981C55.5379 110.157 52.5302 109.365 51.0013 107.03L38.3232 87.6683" stroke="#604B8C" stroke-width="2.8" stroke-linecap="round" stroke-linejoin="round"/>
<path d="M83.5449 39.6324C88.2119 37.3974 93.8123 39.3564 96.0556 44.0092C98.2974 48.6619 96.3324 54.2452 91.6655 56.4818" stroke="#604B8C" stroke-width="2.8" stroke-linecap="round" stroke-linejoin="round"/>
<path d="M52.1543 88.476L55.0591 86.5443C56.5734 85.5367 58.6205 85.9442 59.6295 87.454L61.7731 90.658C62.7837 92.1677 62.375 94.2085 60.8606 95.2145L57.9558 97.1462" stroke="#604B8C" stroke-width="2.8" stroke-linecap="round" stroke-linejoin="round"/>
<path d="M101.222 40.8855L109.759 36.7959" stroke="#604B8C" stroke-width="2.8" stroke-linecap="round" stroke-linejoin="round"/>
<path d="M92.0771 33.4424L95.2137 24.5332" stroke="#604B8C" stroke-width="2.8" stroke-linecap="round" stroke-linejoin="round"/>
<path d="M101.845 53.7065L110.783 56.8335" stroke="#604B8C" stroke-width="2.8" stroke-linecap="round" stroke-linejoin="round"/>
</svg>
