<svg width="124" height="125" viewBox="0 0 124 125" fill="none" xmlns="http://www.w3.org/2000/svg">
<g clip-path="url(#clip0_1514_13697)">
<rect width="87.8296" height="84.37" rx="14.8173" transform="matrix(0.967844 -0.251551 0.25587 0.966711 9 22.936)" fill="#CCBDF1"/>
<path d="M81.5671 58.0348L76.2744 57.5179C75.8544 56.4902 75.3309 55.5201 74.7125 54.6258L77.1098 49.9073C77.4108 49.3143 77.2327 48.4869 76.7148 48.0711L73.984 45.879C73.4642 45.4617 72.6195 45.4665 72.1059 45.8903L68.0506 49.2252C67.026 48.7945 65.9467 48.4762 64.8325 48.2786L63.2085 43.2957C63.0017 42.6621 62.2919 42.2038 61.6299 42.2762L58.1482 42.6572C57.4861 42.7296 56.8922 43.3306 56.8273 43.9939L56.3192 49.21C55.2724 49.6441 54.2891 50.188 53.3819 50.8301L48.7015 48.451C48.1085 48.15 47.2811 48.3281 46.8653 48.846L44.6731 51.5768C44.2559 52.0966 44.2607 52.9413 44.6845 53.4549L48.0454 57.5434C47.6352 58.552 47.3338 59.6123 47.146 60.7065L42.0886 62.3559C41.4567 62.5624 40.9966 63.2724 41.0691 63.9345L41.45 67.4162C41.5225 68.0782 42.1234 68.6722 42.7867 68.737L48.1401 69.2593C48.5613 70.2509 49.0827 71.185 49.6909 72.0496L47.244 76.8646C46.943 77.4575 47.1211 78.2849 47.639 78.7007L50.3698 80.8929C50.8896 81.3101 51.7343 81.3053 52.248 80.8815L56.453 77.4237C57.413 77.8134 58.4188 78.1037 59.4562 78.2908L61.1472 83.4776C61.354 84.1112 62.0638 84.5695 62.7258 84.4971L66.2076 84.1162C66.8696 84.0437 67.4635 83.4428 67.5284 82.7795L68.0578 77.3497C69.0303 76.9427 69.9495 76.4418 70.8025 75.8537L75.6558 78.3205C76.2487 78.6215 77.0762 78.4434 77.4919 77.9255L79.6841 75.1947C80.1013 74.6749 80.0965 73.8302 79.6727 73.3166L76.2426 69.1446C76.6495 68.169 76.9565 67.1442 77.1533 66.085L82.2671 64.4175C82.899 64.2109 83.3591 63.5009 83.2866 62.8389L82.9057 59.3572C82.8333 58.6951 82.2323 58.1012 81.569 58.0363L81.5671 58.0348ZM63.0838 71.6906C58.497 72.1924 54.3725 68.8815 53.8707 64.2947C53.3689 59.7079 56.6798 55.5835 61.2666 55.0816C65.8535 54.5798 69.9779 57.8907 70.4797 62.4775C70.9816 67.0643 67.6706 71.1888 63.0838 71.6906Z" fill="#41CC96"/>
<path d="M99.5833 91.4067C102.337 91.1055 104.265 88.5221 104.022 85.8774C103.871 84.2276 102.96 82.6368 102.136 81.2822C101.105 79.5809 101.953 77.8338 103.894 77.6215L110.249 76.9261C111.266 76.8149 112.18 77.5481 112.291 78.565L115.121 104.436C115.233 105.453 114.499 106.366 113.482 106.477L89.2666 109.127C88.2498 109.238 87.3364 108.505 87.2251 107.488L86.4391 100.304C86.2267 98.3619 84.4778 97.5139 82.7785 98.5467C81.4236 99.3684 79.8331 100.281 78.1833 100.432C75.5368 100.676 72.955 98.7454 72.6539 95.9936C72.3526 93.2402 74.4579 90.7989 77.0927 90.4643C78.7361 90.2553 80.4862 90.8007 81.9869 91.3117C83.8709 91.9508 85.3933 90.7449 85.181 88.8046L84.395 81.6205C84.2837 80.6036 85.017 79.6902 86.0338 79.579L92.3895 78.8836C94.3315 78.6711 95.5376 80.1952 94.8967 82.0777C94.3874 83.5782 93.8402 85.3284 94.0492 86.9719C94.3841 89.6083 96.8268 91.7117 99.5786 91.4107" fill="#41CC96"/>
<path d="M23.941 34.7815C21.1876 35.0828 19.2593 37.6661 19.5023 40.3109C19.6536 41.9607 20.5646 43.5514 21.3879 44.9061C22.4193 46.6073 21.5711 48.3544 19.6308 48.5667L13.2734 49.2623C12.2565 49.3735 11.3431 48.6403 11.2319 47.6234L8.40153 21.7542C8.29027 20.7374 9.02352 19.824 10.0404 19.7127L34.2562 17.0633C35.273 16.952 36.1864 17.6853 36.2977 18.7021L37.0837 25.8862C37.2962 27.8282 39.045 28.6762 40.7444 27.6434C42.0992 26.8217 43.6898 25.909 45.3396 25.7577C47.986 25.5146 50.5679 27.4447 50.8689 30.1965C51.1702 32.9499 49.0649 35.3912 46.4302 35.7258C44.7867 35.9349 43.0366 35.3894 41.536 34.8784C39.6519 34.2393 38.1296 35.4452 38.3418 37.3855L39.1279 44.5696C39.2391 45.5865 38.5059 46.4999 37.489 46.6111L31.1333 47.3065C29.1913 47.519 27.9852 45.9949 28.6262 44.1124C29.1354 42.6119 29.6826 40.8617 29.4736 39.2182C29.1388 36.5818 26.696 34.4784 23.9442 34.7794" fill="#BEEFD9"/>
<path d="M89.9274 25.761C89.6262 23.0075 87.0428 21.0792 84.3981 21.3222C82.7483 21.4735 81.1575 22.3845 79.8029 23.2079C78.1016 24.2392 76.3545 23.391 76.1422 21.4507L75.4464 15.0916C75.3352 14.0748 76.0684 13.1614 77.0853 13.0501L102.956 10.2196C103.973 10.1084 104.886 10.8416 104.998 11.8584L107.647 36.0742C107.758 37.0911 107.025 38.0045 106.008 38.1157L98.8242 38.9017C96.8822 39.1142 96.0342 40.863 97.0671 42.5624C97.8887 43.9172 98.8014 45.5078 98.9527 47.1576C99.1959 49.804 97.2657 52.3859 94.514 52.6869C91.7605 52.9882 89.3192 50.8829 88.9846 48.2482C88.7756 46.6047 89.3211 44.8546 89.832 43.354C90.4711 41.47 89.2652 39.9476 87.3249 40.1599L80.1408 40.9459C79.1239 41.0571 78.2105 40.3239 78.0993 39.307L77.4039 32.9514C77.1914 31.0093 78.7155 29.8033 80.598 30.4442C82.0985 30.9535 83.8488 31.5007 85.4922 31.2916C88.1286 30.9568 90.2321 28.514 89.931 25.7623" fill="white"/>
<path d="M33.449 100.914C33.7503 103.667 36.3337 105.595 38.9784 105.352C40.6282 105.201 42.2189 104.29 43.5736 103.467C45.2748 102.435 47.022 103.284 47.2343 105.224L47.9296 111.58C48.0409 112.597 47.3076 113.51 46.2908 113.621L20.4215 116.452C19.4047 116.563 18.4913 115.83 18.38 114.813L15.7306 90.5969C15.6193 89.58 16.3526 88.6667 17.3694 88.5554L24.5535 87.7694C26.4956 87.5569 27.3435 85.8081 26.3107 84.1087C25.489 82.7539 24.5763 81.1633 24.425 79.5135C24.1819 76.8671 26.112 74.2852 28.8638 73.9842C31.6173 73.6829 34.0585 75.7882 34.3932 78.4229C34.6022 80.0664 34.0567 81.8165 33.5457 83.3171C32.9067 85.2012 34.1126 86.7235 36.0529 86.5113L43.237 85.7252C44.2538 85.614 45.1672 86.3472 45.2785 87.3641L45.9739 93.7198C46.1863 95.6618 44.6622 96.8679 42.7797 96.2269C41.2793 95.7176 39.529 95.1705 37.8855 95.3795C35.2491 95.7143 33.1457 98.1571 33.4468 100.909" fill="#CCBDF1"/>
<path d="M33.4497 100.914C33.751 103.667 36.3344 105.595 38.9791 105.352C40.6289 105.201 42.2196 104.29 43.5743 103.467C45.2756 102.435 47.0227 103.284 47.235 105.224L47.9304 111.58C48.0416 112.597 47.3084 113.51 46.2915 113.621L20.4223 116.452C19.4054 116.563 18.492 115.83 18.3808 114.813L15.7313 90.5969C15.6201 89.58 16.3533 88.6666 17.3702 88.5554L24.5543 87.7694C26.4963 87.5569 27.3443 85.8081 26.3114 84.1087C25.4898 82.7539 24.5771 81.1633 24.4258 79.5135C24.1826 76.8671 26.1128 74.2852 28.8645 73.9842C31.618 73.6829 34.0592 75.7882 34.3939 78.4229C34.6029 80.0664 34.0574 81.8165 33.5465 83.3171C32.9074 85.2012 34.1133 86.7235 36.0536 86.5113L43.2377 85.7252C44.2546 85.614 45.168 86.3472 45.2792 87.3641L45.9746 93.7198C46.1871 95.6618 44.663 96.8679 42.7805 96.2269C41.28 95.7177 39.5297 95.1705 37.8863 95.3795C35.2498 95.7143 33.1464 98.1571 33.4475 100.909" stroke="#604B8C" stroke-width="2.8" stroke-linecap="round" stroke-linejoin="round"/>
<path d="M50.699 99.0269L53.2029 98.7529" stroke="#604B8C" stroke-width="2.8" stroke-linecap="round" stroke-linejoin="round"/>
<path d="M57.8777 98.2407L60.3799 97.967" stroke="#604B8C" stroke-width="2.8" stroke-linecap="round" stroke-linejoin="round"/>
<path d="M65.0642 97.4546L67.5681 97.1806" stroke="#604B8C" stroke-width="2.8" stroke-linecap="round" stroke-linejoin="round"/>
<path d="M72.8257 27.1596L70.3218 27.4336" stroke="#604B8C" stroke-width="2.8" stroke-linecap="round" stroke-linejoin="round"/>
<path d="M65.6484 27.9453L63.1445 28.2192" stroke="#604B8C" stroke-width="2.8" stroke-linecap="round" stroke-linejoin="round"/>
<path d="M58.4607 28.7309L55.9568 29.0049" stroke="#604B8C" stroke-width="2.8" stroke-linecap="round" stroke-linejoin="round"/>
<path d="M23.9418 34.7815C21.1883 35.0828 19.26 37.6661 19.503 40.3109C19.6543 41.9607 20.5653 43.5514 21.3887 44.9061C22.42 46.6073 21.5718 48.3544 19.6315 48.5667L13.2741 49.2623C12.2573 49.3735 11.3439 48.6403 11.2326 47.6234L8.40226 21.7542C8.29101 20.7374 9.02425 19.824 10.0411 19.7127L34.2569 17.0633C35.2738 16.952 36.1872 17.6853 36.2984 18.7021L37.0844 25.8862C37.2969 27.8282 39.0457 28.6762 40.7451 27.6434C42.1 26.8217 43.6905 25.909 45.3403 25.7577C47.9867 25.5146 50.5686 27.4447 50.8697 30.1965C51.1709 32.9499 49.0656 35.3912 46.4309 35.7258C44.7874 35.9349 43.0373 35.3894 41.5367 34.8784C39.6527 34.2393 38.1303 35.4452 38.3426 37.3855L39.1286 44.5696C39.2398 45.5865 38.5066 46.4999 37.4897 46.6111L31.134 47.3065C29.192 47.519 27.986 45.9949 28.6269 44.1124C29.1362 42.6119 29.6834 40.8617 29.4743 39.2182C29.1395 36.5818 26.6967 34.4784 23.945 34.7794" stroke="#604B8C" stroke-width="2.8" stroke-linecap="round" stroke-linejoin="round"/>
<path d="M25.8289 52.0303L26.1028 54.5342" stroke="#604B8C" stroke-width="2.8" stroke-linecap="round" stroke-linejoin="round"/>
<path d="M26.614 59.2085L26.8878 61.7107" stroke="#604B8C" stroke-width="2.8" stroke-linecap="round" stroke-linejoin="round"/>
<path d="M27.4001 66.3955L27.6741 68.8994" stroke="#604B8C" stroke-width="2.8" stroke-linecap="round" stroke-linejoin="round"/>
<path d="M61.2672 55.0802C65.854 54.5783 69.9784 57.8893 70.4803 62.4761C70.9821 67.0629 67.6712 71.1873 63.0843 71.6892C58.4975 72.191 54.3731 68.8801 53.8712 64.2933C53.6549 62.3156 54.1469 60.4219 55.1469 58.8695" stroke="#604B8C" stroke-width="2.8" stroke-linecap="round" stroke-linejoin="round"/>
<path d="M42.7836 68.7355L48.137 69.2578C48.5582 70.2494 49.0796 71.1835 49.6878 72.0481L47.2409 76.863C46.9399 77.456 47.118 78.2834 47.6359 78.6992L50.3667 80.8914C50.8865 81.3086 51.7312 81.3038 52.2449 80.88L56.4499 77.4222C57.4097 77.8102 58.4157 78.1021 59.4531 78.2893L61.1441 83.4761C61.3509 84.1097 62.0607 84.568 62.7227 84.4956L66.2045 84.1147C66.8665 84.0422 67.4604 83.4413 67.5253 82.7779L68.0547 77.3482C69.0272 76.9412 69.9464 76.4403 70.7994 75.8522L75.6527 78.319C76.2456 78.62 77.073 78.4419 77.4888 77.9239L79.681 75.1932C80.0982 74.6734 80.0934 73.8287 79.6696 73.315L76.2395 69.1431C76.6464 68.1675 76.9534 67.1426 77.1502 66.0835L82.264 64.416C82.8976 64.2092 83.356 63.4994 83.2835 62.8374L82.9026 59.3557C82.8302 58.6936 82.2292 58.0997 81.5659 58.0348L76.2732 57.5179C75.8532 56.4902 75.3296 55.5201 74.7113 54.6258L77.1086 49.9073C77.4096 49.3143 77.2315 48.4869 76.7136 48.0711L73.9828 45.879C73.463 45.4617 72.6183 45.4665 72.1046 45.8903L68.0494 49.2252C67.0248 48.7945 65.9455 48.4762 64.8313 48.2786L63.2073 43.2957C63.0005 42.6621 62.2907 42.2038 61.6286 42.2762L58.1469 42.6572C57.4849 42.7296 56.891 43.3306 56.8261 43.9939L56.318 49.21C55.2712 49.6441 54.2879 50.188 53.3807 50.8301L48.7002 48.451C48.1073 48.15 47.2798 48.3281 46.8641 48.846L44.6719 51.5768C44.2547 52.0966 44.2595 52.9413 44.6833 53.4549L48.0442 57.5434C47.634 58.552 47.3325 59.6123 47.1448 60.7065L42.0874 62.3559C41.4538 62.5626 40.9954 63.2724 41.0679 63.9345L41.4488 67.4162C41.5212 68.0782 42.1222 68.6722 42.7855 68.737L42.7836 68.7355Z" stroke="#604B8C" stroke-width="2.8" stroke-linecap="round" stroke-linejoin="round"/>
<path d="M97.6966 74.1558L97.4226 71.6519" stroke="#604B8C" stroke-width="2.8" stroke-linecap="round" stroke-linejoin="round"/>
<path d="M96.9107 66.9795L96.6367 64.4756" stroke="#604B8C" stroke-width="2.8" stroke-linecap="round" stroke-linejoin="round"/>
<path d="M96.1243 59.791L95.8503 57.2871" stroke="#604B8C" stroke-width="2.8" stroke-linecap="round" stroke-linejoin="round"/>
<path d="M99.584 91.4067C102.338 91.1055 104.266 88.5221 104.023 85.8774C103.872 84.2276 102.96 82.6368 102.137 81.2822C101.106 79.5809 101.954 77.8338 103.894 77.6215L110.25 76.9261C111.267 76.8149 112.18 77.5481 112.291 78.565L115.122 104.436C115.233 105.453 114.5 106.366 113.483 106.477L89.2674 109.127C88.2505 109.238 87.3371 108.505 87.2259 107.488L86.4399 100.304C86.2274 98.3619 84.4786 97.5139 82.7792 98.5467C81.4243 99.3684 79.8338 100.281 78.184 100.432C75.5376 100.676 72.9557 98.7454 72.6546 95.9936C72.3534 93.2402 74.4587 90.7989 77.0934 90.4643C78.7369 90.2553 80.487 90.8007 81.9876 91.3117C83.8716 91.9508 85.394 90.7449 85.1817 88.8046L84.3957 81.6205C84.2845 80.6036 85.0177 79.6902 86.0345 79.579L92.3902 78.8836C94.3323 78.6711 95.5383 80.1952 94.8974 82.0777C94.3881 83.5782 93.8409 85.3284 94.05 86.9719C94.3848 89.6083 96.8276 91.7117 99.5793 91.4107" stroke="#604B8C" stroke-width="2.8" stroke-linecap="round" stroke-linejoin="round"/>
<path d="M106.243 23.2657L107.644 36.0739C107.756 37.0907 107.022 38.0041 106.005 38.1154L98.8214 38.9014C96.8793 39.1138 96.0314 40.8627 97.0642 42.562C97.8858 43.9169 98.7986 45.5074 98.9499 47.1572C99.193 49.8036 97.2629 52.3855 94.5111 52.6866C91.7576 52.9878 89.3164 50.8825 88.9817 48.2478C88.7727 46.6043 89.3182 44.8543 89.8292 43.3536C90.4682 41.4696 89.2623 39.9472 87.322 40.1595L80.1379 40.9455C79.1211 41.0568 78.2077 40.3235 78.0964 39.3067L77.401 32.951C77.1886 31.009 78.7126 29.8029 80.5951 30.4439C82.0956 30.9531 83.8459 31.5003 85.4894 31.2913C88.1258 30.9564 90.2292 28.5137 89.9281 25.7619" stroke="#604B8C" stroke-width="2.8" stroke-linecap="round" stroke-linejoin="round"/>
<path d="M89.9282 25.761C89.6269 23.0075 87.0435 21.0792 84.3988 21.3222C82.749 21.4735 81.1583 22.3845 79.8036 23.2079C78.1023 24.2392 76.3552 23.391 76.1429 21.4507L75.4472 15.0916C75.3359 14.0748 76.0692 13.1614 77.086 13.0501L102.957 10.2196C103.974 10.1084 104.887 10.8416 104.998 11.8584L105.525 16.6744" stroke="#604B8C" stroke-width="2.8" stroke-linecap="round" stroke-linejoin="round"/>
</g>
<defs>
<clipPath id="clip0_1514_13697">
<rect width="124" height="124" fill="white" transform="translate(0 0.936035)"/>
</clipPath>
</defs>
</svg>
