<svg width="124" height="125" viewBox="0 0 124 125" fill="none" xmlns="http://www.w3.org/2000/svg">
<rect width="87.8296" height="84.37" rx="14.8173" transform="matrix(0.967844 -0.251551 0.25587 0.966711 9 32.0923)" fill="#CCBDF1"/>
<path d="M89.5649 118.092H103.441V108.481C103.441 106.152 101.518 104.248 99.1684 104.248H24.2726C21.9216 104.248 20 106.153 20 108.481V118.092H79.662" fill="#BEEFD9"/>
<path d="M59.5105 90.4888H37.877V104.247H59.5105V90.4888Z" fill="#CCBDF1"/>
<path d="M40.4455 82.8594H66.4212C68.6331 82.8594 70.4277 84.6362 70.4277 86.8296C70.4277 89.0229 68.6346 90.7998 66.4212 90.7998H28.8629C26.6511 90.7998 24.8564 89.0229 24.8564 86.8296C24.8564 84.6362 26.6495 82.8594 28.8629 82.8594H33.766" fill="#CCBDF1"/>
<path d="M76.6795 16.9101L71.6533 24.6387L88.8275 35.6064L93.8537 27.8779L76.6795 16.9101Z" fill="#CCBDF1"/>
<path d="M70.9615 63.0811L68.2099 67.312C67.2544 68.7802 65.2617 69.2072 63.7801 68.2604L51.9949 60.7319C50.5133 59.7851 50.0824 57.8105 51.0379 56.3422L53.7895 52.1113" fill="#CCBDF1"/>
<path d="M77.5537 7.87153L74.2998 12.8749C73.6607 13.8576 73.9465 15.1677 74.9383 15.8011L95.592 28.9909C96.5837 29.6243 97.9058 29.341 98.5449 28.3583L101.799 23.3549C102.438 22.3722 102.152 21.0621 101.16 20.4287L80.5067 7.23887C79.5149 6.60552 78.1928 6.88877 77.5537 7.87153Z" fill="#CCBDF1"/>
<path d="M78.9625 58.4768L75.656 63.5602C75.0195 64.5385 73.6906 64.8232 72.7033 64.1924L52.0509 51.0008C51.0637 50.3701 50.7764 49.0532 51.4129 48.0748L66.9657 24.1651C67.6022 23.1868 68.9311 22.9022 69.9184 23.5329L90.5708 36.7245C91.558 37.3553 91.8453 38.6722 91.2088 39.6505L88.8155 43.3301" fill="#BEEFD9"/>
<path d="M83.847 59.9333C88.8804 59.9333 92.9607 55.89 92.9607 50.9022C92.9607 45.9145 88.8804 41.8711 83.847 41.8711C78.8137 41.8711 74.7334 45.9145 74.7334 50.9022C74.7334 55.89 78.8137 59.9333 83.847 59.9333Z" fill="#41CC96"/>
<path d="M66.4211 90.7984C75.937 90.7984 83.8109 86.6918 88.5945 79.2338C93.112 72.1923 94.1899 62.7716 91.2871 56.1182" stroke="#604B8C" stroke-width="2.8" stroke-linecap="round" stroke-linejoin="round"/>
<path d="M84.206 59.9619C85.8902 64.6977 84.3254 71.089 81.8308 74.9753C79.5237 78.5725 74.9774 82.8588 66.4202 82.8588" stroke="#604B8C" stroke-width="2.8" stroke-linecap="round" stroke-linejoin="round"/>
<path d="M71.6565 24.6432L76.6835 16.9141" stroke="#604B8C" stroke-width="2.8" stroke-linecap="round" stroke-linejoin="round"/>
<path d="M88.8284 35.6129L93.8554 27.8853" stroke="#604B8C" stroke-width="2.8" stroke-linecap="round" stroke-linejoin="round"/>
<path d="M83.8473 59.9333C88.8806 59.9333 92.9609 55.89 92.9609 50.9022C92.9609 45.9145 88.8806 41.8711 83.8473 41.8711C78.814 41.8711 74.7336 45.9145 74.7336 50.9022C74.7336 55.89 78.814 59.9333 83.8473 59.9333Z" stroke="#604B8C" stroke-width="2.8" stroke-linecap="round" stroke-linejoin="round"/>
<path d="M40.4457 82.8594H66.4214C68.6333 82.8594 70.4279 84.6362 70.4279 86.8296C70.4279 89.0229 68.6348 90.7998 66.4214 90.7998H28.8632C26.6513 90.7998 24.8567 89.0229 24.8567 86.8296C24.8567 84.6362 26.6498 82.8594 28.8632 82.8594H33.7662" stroke="#604B8C" stroke-width="2.8" stroke-linecap="round" stroke-linejoin="round"/>
<path d="M76.7434 88.958V103.531" stroke="#604B8C" stroke-width="2.8" stroke-linecap="round" stroke-linejoin="round"/>
<path d="M83.8479 84.7231V97.9941" stroke="#604B8C" stroke-width="2.8" stroke-linecap="round" stroke-linejoin="round"/>
<path d="M77.554 7.87153L74.3001 12.8749C73.6609 13.8576 73.9468 15.1677 74.9385 15.8011L95.5922 28.9909C96.584 29.6243 97.906 29.341 98.5452 28.3583L101.799 23.3549C102.438 22.3722 102.152 21.0621 101.161 20.4287L80.5069 7.23887C79.5152 6.60552 78.1931 6.88877 77.554 7.87153Z" stroke="#604B8C" stroke-width="2.8" stroke-linecap="round" stroke-linejoin="round"/>
<path d="M78.9628 58.4768L75.6563 63.5602C75.0197 64.5385 73.6908 64.8232 72.7035 64.1924L52.0512 51.0008C51.0639 50.3701 50.7767 49.0532 51.4132 48.0748L66.9659 24.1651C67.6024 23.1868 68.9314 22.9022 69.9186 23.5329L90.571 36.7245C91.5583 37.3553 91.8455 38.6722 91.209 39.6505L88.8157 43.3301" stroke="#604B8C" stroke-width="2.8" stroke-linecap="round" stroke-linejoin="round"/>
<path d="M37.8772 90.7993V104.247" stroke="#604B8C" stroke-width="2.8" stroke-linecap="round" stroke-linejoin="round"/>
<path d="M59.2092 90.7993L59.5101 104.247" stroke="#604B8C" stroke-width="2.8" stroke-linecap="round" stroke-linejoin="round"/>
<path d="M89.5651 118.092H103.441V108.481C103.441 106.152 101.518 104.248 99.1686 104.248H24.2728C21.9219 104.248 20.0002 106.153 20.0002 108.481V118.092H79.6623" stroke="#604B8C" stroke-width="2.8" stroke-linecap="round" stroke-linejoin="round"/>
<path d="M40.4457 82.8594H66.4214C68.6333 82.8594 70.4279 84.6362 70.4279 86.8296C70.4279 89.0229 68.6348 90.7998 66.4214 90.7998H28.8632C26.6513 90.7998 24.8567 89.0229 24.8567 86.8296C24.8567 84.6362 26.6498 82.8594 28.8632 82.8594H33.7662" stroke="#604B8C" stroke-width="2.8" stroke-linecap="round" stroke-linejoin="round"/>
<path d="M70.9617 63.0806L68.2101 67.3115C67.2546 68.7798 65.2619 69.2067 63.7803 68.2599L51.9951 60.7315C50.5135 59.7846 50.0826 57.81 51.0381 56.3417L53.7898 52.1108" stroke="#604B8C" stroke-width="2.8" stroke-linecap="round" stroke-linejoin="round"/>
</svg>
