<svg width="124" height="125" viewBox="0 0 124 125" fill="none" xmlns="http://www.w3.org/2000/svg">
<g clip-path="url(#clip0_1514_13470)">
<rect width="87.8296" height="84.37" rx="14.8173" transform="matrix(0.967844 -0.251551 0.25587 0.966711 9 32.0923)" fill="#BEEFD9"/>
<path d="M74.1478 95.3642L37.0969 88.6305C34.982 88.2462 32.956 89.649 32.5716 91.7639L29.2203 110.204C28.836 112.319 30.2388 114.345 32.3537 114.729L69.4046 121.463C71.5195 121.847 73.5455 120.444 73.9299 118.329L77.2812 99.8895C77.6656 97.7746 76.2627 95.7485 74.1478 95.3642Z" fill="#82A5D1"/>
<path d="M45.4922 22.9863L51.7773 91.2984L59.4675 92.696L89.387 30.9638L82.6595 35.9709L58.9541 73.6948L50.754 32.2185L45.4922 22.9863Z" fill="#D3E2EB"/>
<path d="M73.1221 5.47544L77.3908 20.3942L92.1006 25.3353C93.6359 25.8515 93.914 27.9032 92.5698 28.8091L79.7002 37.4789L79.5464 52.9952C79.531 54.6153 77.6643 55.513 76.3885 54.5154L64.1661 44.9544L49.3611 49.6034C47.8159 50.0883 46.3845 48.5912 46.9401 47.0693L52.2557 32.4911L43.2596 19.8474C42.3198 18.528 43.3024 16.7039 44.9211 16.7609L60.4289 17.3115L69.6739 4.84876C70.6387 3.54843 72.6765 3.91877 73.1221 5.47544Z" fill="#41CC96"/>
<path d="M39.6768 109.859L36.3486 109.255C35.945 109.181 35.6773 108.795 35.7507 108.391L38.0469 95.7566C38.1202 95.353 38.5068 95.0853 38.9104 95.1587L70.1543 100.837C70.558 100.91 70.8256 101.297 70.7523 101.701L68.4561 114.335C68.3827 114.739 67.9962 115.006 67.5925 114.933L46.4306 111.087" fill="white"/>
<path d="M34.3991 24.5896L22.7941 22.4805" stroke="#23549A" stroke-width="2.8" stroke-linecap="round" stroke-linejoin="round"/>
<path d="M31.6152 37.0591L23.9631 38.9236" stroke="#23549A" stroke-width="2.8" stroke-linecap="round" stroke-linejoin="round"/>
<path d="M29.6735 7.50146L36.1805 11.9377" stroke="#23549A" stroke-width="2.8" stroke-linecap="round" stroke-linejoin="round"/>
<path d="M99.1957 36.3657L110.801 38.4748" stroke="#23549A" stroke-width="2.8" stroke-linecap="round" stroke-linejoin="round"/>
<path d="M101.98 23.8962L109.631 22.0332" stroke="#23549A" stroke-width="2.8" stroke-linecap="round" stroke-linejoin="round"/>
<path d="M103.921 53.4553L97.4142 49.0176" stroke="#23549A" stroke-width="2.8" stroke-linecap="round" stroke-linejoin="round"/>
<path d="M41.9276 110.269L36.3486 109.255C35.945 109.181 35.6773 108.795 35.7507 108.391L38.0469 95.7566C38.1202 95.353 38.5068 95.0853 38.9104 95.1587L70.1543 100.837C70.558 100.91 70.8256 101.297 70.7523 101.701L68.4561 114.335C68.3827 114.739 67.9962 115.006 67.5925 114.933L46.4306 111.087" stroke="#23549A" stroke-width="2.8" stroke-linecap="round" stroke-linejoin="round"/>
<path d="M74.1479 95.3642L37.097 88.6305C34.9822 88.2462 32.9561 89.649 32.5718 91.7639L29.2205 110.204C28.8361 112.319 30.239 114.345 32.3539 114.729L69.4047 121.463C71.5196 121.847 73.5457 120.444 73.93 118.329L77.2813 99.8895C77.6657 97.7746 76.2628 95.7485 74.1479 95.3642Z" stroke="#23549A" stroke-width="2.8" stroke-linecap="round" stroke-linejoin="round"/>
<path d="M66.7808 8.74854L69.6739 4.84729C70.6387 3.54697 72.6765 3.9173 73.1221 5.47397L77.3908 20.3927L92.1005 25.3339C93.6359 25.8501 93.914 27.9018 92.5698 28.8076L79.7002 37.4774L79.5464 52.9937C79.531 54.6138 77.6643 55.5115 76.3885 54.5139L64.1661 44.953L49.3611 49.602C47.8159 50.0869 46.3845 48.5897 46.9401 47.0678L52.2557 32.4896L43.2596 19.846C42.3198 18.5265 43.3024 16.7024 44.9211 16.7594L60.4289 17.3101L63.734 12.8559" stroke="#23549A" stroke-width="2.8" stroke-linecap="round" stroke-linejoin="round"/>
<path d="M47.9316 49.5034L51.777 91.2981" stroke="#23549A" stroke-width="2.8" stroke-linecap="round" stroke-linejoin="round"/>
<path d="M45.4922 22.9863L47.5534 45.3861" stroke="#23549A" stroke-width="2.8" stroke-linecap="round" stroke-linejoin="round"/>
<path d="M77.7736 54.924L59.4677 92.696" stroke="#23549A" stroke-width="2.8" stroke-linecap="round" stroke-linejoin="round"/>
<path d="M72.8425 51.6254L58.9544 73.695L58.9439 73.6931L53.7103 48.1514" stroke="#23549A" stroke-width="2.8" stroke-linecap="round" stroke-linejoin="round"/>
<path d="M89.3868 30.964L79.5637 51.2302" stroke="#23549A" stroke-width="2.8" stroke-linecap="round" stroke-linejoin="round"/>
</g>
<defs>
<clipPath id="clip0_1514_13470">
<rect width="124" height="124" fill="white" transform="translate(0 0.0922852)"/>
</clipPath>
</defs>
</svg>
