<svg width="81" height="80" viewBox="0 0 81 80" fill="none" xmlns="http://www.w3.org/2000/svg">
<rect width="56.4947" height="54.7013" rx="8.96743" transform="matrix(0.967282 -0.253703 0.253702 0.967282 6.5 18.6748)" fill="#CCBDF1"/>
<path d="M31.0779 60.641C31.0779 60.641 31.0779 48.6249 20.9849 41.7049V9.20571C20.9849 6.34252 23.3274 4 26.1906 4H46.6471C49.5103 4 51.8528 6.34252 51.8528 9.20571V24.464L51.8506 24.4576C50.3844 25.0102 49.342 26.4253 49.342 28.0853C49.342 30.2255 51.0776 31.9611 53.2178 31.9611C52.2265 31.9611 51.2341 32.3391 50.4771 33.0962L47.7363 35.8369C46.2233 37.35 46.2233 39.8043 47.7363 41.3173C48.848 42.429 50.4664 42.7239 51.8474 42.2032L52.0359 42.61C51.8208 42.7516 51.6175 42.9177 51.4279 43.1062L49.9756 44.5575C48.4625 46.0705 48.4625 48.5248 49.9756 50.0379C50.5165 50.5788 51.1777 50.9259 51.873 51.0803L51.8528 51.0697V54.2278C51.8528 57.091 49.5103 59.4335 46.6471 59.4335H31.0066" fill="white"/>
<path d="M36.4192 39.2641C42.4162 39.2641 47.2778 34.4026 47.2778 28.4055C47.2778 22.4084 42.4162 17.5469 36.4192 17.5469C30.4221 17.5469 25.5605 22.4084 25.5605 28.4055C25.5605 34.4026 30.4221 39.2641 36.4192 39.2641Z" fill="#BEEFD9"/>
<path d="M42.906 26.0667H38.8364V21.9971H34.0012V26.0667H29.9316V30.9018H34.0012V34.9725H38.8364V30.9018H42.906V26.0667Z" fill="#41CC96"/>
<path d="M31.8623 9.20605H40.9757" stroke="#604B8C" stroke-width="2" stroke-linecap="round" stroke-linejoin="round"/>
<path d="M34.4653 54.2275H38.372" stroke="#604B8C" stroke-width="2" stroke-linecap="round" stroke-linejoin="round"/>
<path d="M20.9842 30.8618C20.9842 26.6336 17.5567 23.2061 13.3284 23.2061L13.6351 35.2711L11.2149 44.5922C10.6388 46.809 10.8177 50.3814 11.6099 52.5301L15.3984 62.7946L9.32275 75.1418" stroke="#604B8C" stroke-width="2" stroke-linecap="round" stroke-linejoin="round"/>
<path d="M36.0758 68.9697L33.7056 73.7879" stroke="#604B8C" stroke-width="2" stroke-linecap="round" stroke-linejoin="round"/>
<path d="M36.0752 68.969C40.0915 68.969 43.633 66.9342 45.7253 63.8389" stroke="#604B8C" stroke-width="2" stroke-linecap="round" stroke-linejoin="round"/>
<path d="M51.8687 11.8439L54.175 9.53762C55.688 8.02457 58.1423 8.02457 59.6554 9.53762C61.1684 11.0507 61.1684 13.505 59.6554 15.018L56.2406 18.4328" stroke="#604B8C" stroke-width="2" stroke-linecap="round" stroke-linejoin="round"/>
<path d="M55.9575 38.5752C57.4705 37.0621 57.4705 34.6078 55.9575 33.0948C54.4444 31.5817 51.9901 31.5817 50.4771 33.0948L47.7363 35.8355C46.2233 37.3485 46.2233 39.8029 47.7363 41.3159C49.2494 42.829 51.7037 42.829 53.2168 41.3159L55.9575 38.5752Z" stroke="#604B8C" stroke-width="2" stroke-linecap="round" stroke-linejoin="round"/>
<path d="M51.8535 51.0693V54.2275C51.8535 57.0907 49.511 59.4332 46.6478 59.4332H31.0073" stroke="#604B8C" stroke-width="2" stroke-linecap="round" stroke-linejoin="round"/>
<path d="M20.9844 41.7049V9.20571C20.9844 6.34252 23.3269 4 26.1901 4H46.6466C49.5098 4 51.8523 6.34252 51.8523 9.20571V24.464" stroke="#604B8C" stroke-width="2" stroke-linecap="round" stroke-linejoin="round"/>
<path d="M20.9844 41.7051C31.0774 48.6251 31.0774 60.6411 31.0774 60.6411" stroke="#604B8C" stroke-width="2" stroke-linecap="round" stroke-linejoin="round"/>
<path d="M53.2171 31.9596C55.3576 31.9596 57.0929 30.2244 57.0929 28.0838C57.0929 25.9433 55.3576 24.208 53.2171 24.208C51.0766 24.208 49.3413 25.9433 49.3413 28.0838C49.3413 30.2244 51.0766 31.9596 53.2171 31.9596Z" stroke="#604B8C" stroke-width="2" stroke-linecap="round" stroke-linejoin="round"/>
<path d="M56.9084 48.5854C58.4214 47.0724 58.4214 44.6181 56.9084 43.105C55.3953 41.592 52.941 41.592 51.428 43.105L49.9756 44.5574C48.4626 46.0704 48.4626 48.5247 49.9756 50.0378C51.4887 51.5508 53.943 51.5508 55.456 50.0378L56.9084 48.5854Z" stroke="#604B8C" stroke-width="2" stroke-linecap="round" stroke-linejoin="round"/>
<path d="M45.3854 34.7473C43.4081 37.5733 40.1286 39.4217 36.4179 39.4217C30.3774 39.4217 25.4805 34.5248 25.4805 28.4843C25.4805 22.4438 30.3774 17.5469 36.4179 17.5469C40.4885 17.5469 44.0406 19.7712 45.9242 23.071C46.529 24.1315 46.9624 25.3017 47.1849 26.5464" stroke="#604B8C" stroke-width="2" stroke-linecap="round" stroke-linejoin="round"/>
<path d="M42.906 26.0667H38.8364V21.9971H34.0012V26.0667H29.9316V30.9018H34.0012V34.9725H38.8364V30.9018H42.906V26.0667Z" stroke="#604B8C" stroke-width="2" stroke-linecap="round" stroke-linejoin="round"/>
<ellipse cx="46.6025" cy="32.4819" rx="0.741618" ry="0.741619" fill="#604B8C"/>
</svg>
