<svg width="29" height="28" viewBox="0 0 29 28" fill="none" xmlns="http://www.w3.org/2000/svg">
<rect width="22.4529" height="21.7402" rx="3.56396" transform="matrix(0.967282 -0.253703 0.253702 0.967282 0 7)" fill="#BEEFD9"/>
<path d="M18.6187 2.22754H9.91117C8.30505 2.22754 7.00586 3.52673 7.00586 5.13285V24.3222C7.00586 25.9283 8.30505 27.2275 9.91117 27.2275H18.6187C20.2248 27.2275 21.524 25.9283 21.524 24.3222V5.13285C21.524 3.52673 20.2248 2.22754 18.6187 2.22754ZM14.267 25.7896C13.5186 25.7896 12.9132 25.1841 12.9132 24.4357C12.9132 23.6873 13.5186 23.0819 14.267 23.0819C15.0154 23.0819 15.6209 23.6873 15.6209 24.4357C15.6209 25.1841 15.0154 25.7896 14.267 25.7896ZM19.9095 21.2109C19.9095 21.4548 19.7119 21.6524 19.468 21.6524H9.06186C8.818 21.6524 8.62039 21.4548 8.62039 21.2109V6.53295C8.62039 6.28909 8.818 6.09148 9.06186 6.09148H19.468C19.7119 6.09148 19.9095 6.28909 19.9095 6.53295V21.2067V21.2109Z" fill="#047474"/>
<path d="M17.954 11.7084H15.7929V9.5473C15.7929 9.32025 15.6079 9.13525 15.3809 9.13525H13.1483C12.9212 9.13525 12.7362 9.32025 12.7362 9.5473V11.7084H10.5751C10.3481 11.7084 10.1631 11.8934 10.1631 12.1205V14.353C10.1631 14.5801 10.3481 14.7651 10.5751 14.7651H12.7362V16.9262C12.7362 17.1532 12.9212 17.3382 13.1483 17.3382H15.3809C15.6079 17.3382 15.7929 17.1532 15.7929 16.9262V14.7651H17.954C18.1811 14.7651 18.3661 14.5801 18.3661 14.353V12.1205C18.3661 11.8934 18.1811 11.7084 17.954 11.7084Z" fill="#047474"/>
</svg>
