<svg width="29" height="28" viewBox="0 0 29 28" fill="none" xmlns="http://www.w3.org/2000/svg">
<rect width="22.4529" height="21.7402" rx="3.56396" transform="matrix(0.967282 -0.253703 0.253702 0.967282 0 6.69629)" fill="#BEEFD9"/>
<path d="M22.0867 2.83643L18.811 10.6676L28.0002 13.0157C27.965 12.8279 27.8984 12.64 27.7928 12.4639L22.0867 2.83643Z" fill="#047474"/>
<path d="M14.678 13.3638C15.5077 13.4499 16.2787 12.992 16.5996 12.225L20.5954 2.67969L4.38916 12.2876L14.678 13.3638Z" fill="#047474"/>
<path d="M18.2473 12.0059L17.9225 12.7768C17.6368 13.4539 17.1555 13.9979 16.5606 14.3501C15.9657 14.7023 15.2574 14.8667 14.5255 14.7884L13.6919 14.7023L12.6078 18.9369C12.557 19.1286 12.4356 19.2813 12.2791 19.3752C12.1226 19.4691 11.9269 19.5004 11.7351 19.4535C11.3516 19.3556 11.1207 18.9643 11.2185 18.5807L12.2478 14.5536L3.81006 13.6691L9.5161 23.2966C9.99356 24.1028 11.0346 24.3689 11.8408 23.8915L27.1978 14.7884C27.3739 14.6828 27.5226 14.5536 27.6439 14.4049L18.2473 12.002V12.0059Z" fill="#047474"/>
</svg>
