<svg width="124" height="124" viewBox="0 0 124 124" fill="none" xmlns="http://www.w3.org/2000/svg">
<g clip-path="url(#clip0_1514_13438)">
<rect width="87.8296" height="84.37" rx="14.8173" transform="matrix(0.967844 -0.251551 0.25587 0.966711 -2 43)" fill="#BEEFD9"/>
<path d="M68.7291 100.273H23.5456C18.8258 100.273 15 96.482 15 91.8049V23.4682C15 18.7912 18.8258 15 23.5456 15H100.828C105.548 15 109.374 18.7912 109.374 23.4682V91.8067C109.374 96.4838 105.548 100.275 100.828 100.275" fill="white"/>
<path d="M109.372 23.5299C109.372 27.9176 105.783 31.4738 101.355 31.4738H73.0878C72.2705 31.4738 71.4805 31.7685 70.8657 32.3018L62.1103 39.9094C61.4955 40.4428 60.7055 40.7374 59.8881 40.7374H26.7311C20.2526 40.7374 15.002 35.5325 15.002 29.1145V22.2083V23.5299C15.0001 18.8528 18.8259 15.0635 23.5457 15.0635H100.828C105.548 15.0635 109.374 18.8546 109.374 23.5317" fill="#41CC96"/>
<path d="M27.0825 31.7725C29.4604 31.7725 31.3881 29.8623 31.3881 27.5059C31.3881 25.1495 29.4604 23.2393 27.0825 23.2393C24.7046 23.2393 22.7769 25.1495 22.7769 27.5059C22.7769 29.8623 24.7046 31.7725 27.0825 31.7725Z" fill="#CCBDF1"/>
<path d="M40.1128 31.7725C42.4907 31.7725 44.4184 29.8623 44.4184 27.5059C44.4184 25.1495 42.4907 23.2393 40.1128 23.2393C37.7348 23.2393 35.8071 25.1495 35.8071 27.5059C35.8071 29.8623 37.7348 31.7725 40.1128 31.7725Z" fill="white"/>
<path d="M53.1406 31.7725C55.5185 31.7725 57.4462 29.8623 57.4462 27.5059C57.4462 25.1495 55.5185 23.2393 53.1406 23.2393C50.7627 23.2393 48.835 25.1495 48.835 27.5059C48.835 29.8623 50.7627 31.7725 53.1406 31.7725Z" fill="white"/>
<path d="M63.9233 65.5612H60.3329C59.9789 64.3282 59.4918 63.1531 58.8734 62.0557L61.4075 59.5445C62.1299 58.8286 62.1299 57.6571 61.4075 56.9412L57.5561 53.1265C56.8337 52.4106 55.6514 52.4106 54.929 53.1265L52.3948 55.6377C51.2874 55.0266 50.1015 54.5439 48.8573 54.1914V50.6334C48.8573 49.621 48.0217 48.793 47 48.793H41.5541C40.5325 48.793 39.6969 49.621 39.6969 50.6334V54.1914C38.4526 54.5421 37.2668 55.0248 36.1593 55.6377L33.6252 53.1265C32.9027 52.4106 31.7205 52.4106 30.998 53.1265L27.1485 56.9412C26.4261 57.6571 26.4261 58.8286 27.1485 59.5445L29.6826 62.0557C29.066 63.1531 28.5789 64.3282 28.2231 65.5612H24.6326C23.611 65.5612 22.7754 66.3892 22.7754 67.4017V72.7982C22.7754 73.8107 23.611 74.6387 24.6326 74.6387H28.2231C28.577 75.8717 29.0642 77.0468 29.6826 78.1442L27.1485 80.6554C26.4261 81.3713 26.4261 82.5428 27.1485 83.2587L30.998 87.0752C31.7205 87.7911 32.9027 87.7911 33.6252 87.0752L36.1593 84.564C37.2668 85.1751 38.4526 85.6578 39.6969 86.0104V89.5683C39.6969 90.5807 40.5325 91.4088 41.5541 91.4088H47C48.0217 91.4088 48.8573 90.5807 48.8573 89.5683V86.0104C50.1015 85.6596 51.2874 85.1769 52.3948 84.564L54.929 87.0752C55.6514 87.7911 56.8337 87.7911 57.5561 87.0752L61.4075 83.2606C62.1299 82.5446 62.1299 81.3731 61.4075 80.6572L58.8734 78.146C59.49 77.0486 59.9771 75.8735 60.3329 74.6405H63.9233C64.945 74.6405 65.7806 73.8125 65.7806 72.8001V67.4035C65.7806 66.3911 64.945 65.563 63.9233 65.563V65.5612ZM44.2798 78.4515C39.6257 78.4515 35.851 74.7128 35.851 70.0991C35.851 65.4853 39.6239 61.7466 44.2798 61.7466C48.9357 61.7466 52.7086 65.4853 52.7086 70.0991C52.7086 74.7128 48.9357 78.4515 44.2798 78.4515Z" fill="#CCBDF1"/>
<path d="M96.2595 39.9102H79.276C76.754 39.9102 74.7095 41.9361 74.7095 44.4353V52.8421C74.7095 55.3412 76.754 57.3672 79.276 57.3672H96.2595C98.7815 57.3672 100.826 55.3412 100.826 52.8421V44.4353C100.826 41.9361 98.7815 39.9102 96.2595 39.9102Z" fill="#BEEFD9"/>
<path d="M96.2595 65.7275H79.276C76.754 65.7275 74.7095 67.7535 74.7095 70.2527V78.6594C74.7095 81.1586 76.754 83.1846 79.276 83.1846H96.2595C98.7815 83.1846 100.826 81.1586 100.826 78.6594V70.2527C100.826 67.7535 98.7815 65.7275 96.2595 65.7275Z" fill="#BEEFD9"/>
<path d="M96.2595 91.543H79.276C76.754 91.543 74.7095 93.569 74.7095 96.0681V104.475C74.7095 106.974 76.754 109 79.276 109H96.2595C98.7815 109 100.826 106.974 100.826 104.475V96.0681C100.826 93.569 98.7815 91.543 96.2595 91.543Z" fill="#BEEFD9"/>
<path d="M41.556 48.793H47.0019C48.0235 48.793 48.8591 49.621 48.8591 50.6334V54.1914C50.1034 54.5421 51.2892 55.0248 52.3967 55.6377L54.9308 53.1265C55.6532 52.4106 56.8355 52.4106 57.5579 53.1265L61.4093 56.943C62.1318 57.6589 62.1318 58.8304 61.4093 59.5464L58.8752 62.0575C59.4918 63.1549 59.9789 64.33 60.3347 65.563H63.9252C64.9468 65.563 65.7824 66.3911 65.7824 67.4035V72.8001C65.7824 73.8125 64.9468 74.6405 63.9252 74.6405H60.3347C59.9808 75.8735 59.4937 77.0486 58.8752 78.146L61.4093 80.6572C62.1318 81.3731 62.1318 82.5446 61.4093 83.2606L57.5579 87.0752C56.8355 87.7911 55.6532 87.7911 54.9308 87.0752L52.3967 84.564C51.2892 85.1751 50.1034 85.6578 48.8591 86.0104V89.5683C48.8591 90.5807 48.0235 91.4088 47.0019 91.4088H41.556C40.5343 91.4088 39.6987 90.5807 39.6987 89.5683V86.0104C38.4544 85.6596 37.2686 85.1769 36.1612 84.564L33.627 87.0752C32.9046 87.7911 31.7223 87.7911 30.9999 87.0752L27.1485 83.2587C26.4261 82.5428 26.4261 81.3713 27.1485 80.6554L29.6826 78.1442C29.066 77.0468 28.5789 75.8717 28.2231 74.6387H24.6326C23.611 74.6387 22.7754 73.8107 22.7754 72.7982V67.4017C22.7754 66.3892 23.611 65.5612 24.6326 65.5612H28.2231C28.577 64.3282 29.0642 63.1531 29.6826 62.0557L27.1485 59.5445C26.4261 58.8286 26.4261 57.6571 27.1485 56.9412L30.9999 53.1265C31.7223 52.4106 32.9046 52.4106 33.627 53.1265L36.1612 55.6377C37.2686 55.0266 38.4544 54.5439 39.6987 54.1914V50.6334C39.6987 49.621 40.5343 48.793 41.556 48.793Z" stroke="#604B8C" stroke-width="2.8" stroke-linecap="round" stroke-linejoin="round"/>
<path d="M51.2126 65.3522C52.154 66.7009 52.7068 68.337 52.7068 70.1015C52.7068 74.7135 48.9339 78.454 44.2779 78.454C39.622 78.454 35.8491 74.7153 35.8491 70.1015C35.8491 65.4878 39.622 61.749 44.2779 61.749C45.0989 61.749 45.8925 61.8647 46.6424 62.0817" stroke="#604B8C" stroke-width="2.8" stroke-linecap="round" stroke-linejoin="round"/>
<path d="M96.2595 39.9102H79.276C76.754 39.9102 74.7095 41.9361 74.7095 44.4353V52.8421C74.7095 55.3412 76.754 57.3672 79.276 57.3672H96.2595C98.7815 57.3672 100.826 55.3412 100.826 52.8421V44.4353C100.826 41.9361 98.7815 39.9102 96.2595 39.9102Z" stroke="#604B8C" stroke-width="2.8" stroke-linecap="round" stroke-linejoin="round"/>
<path d="M80.1821 45.333H87.7681" stroke="#604B8C" stroke-width="2.8" stroke-linecap="round" stroke-linejoin="round"/>
<path d="M80.1821 50.082H95.354" stroke="#604B8C" stroke-width="2.8" stroke-linecap="round" stroke-linejoin="round"/>
<path d="M96.2595 65.7275H79.276C76.754 65.7275 74.7095 67.7535 74.7095 70.2527V78.6594C74.7095 81.1586 76.754 83.1846 79.276 83.1846H96.2595C98.7815 83.1846 100.826 81.1586 100.826 78.6594V70.2527C100.826 67.7535 98.7815 65.7275 96.2595 65.7275Z" stroke="#604B8C" stroke-width="2.8" stroke-linecap="round" stroke-linejoin="round"/>
<path d="M80.1821 71.1504H87.7681" stroke="#604B8C" stroke-width="2.8" stroke-linecap="round" stroke-linejoin="round"/>
<path d="M80.1821 75.8994H95.354" stroke="#604B8C" stroke-width="2.8" stroke-linecap="round" stroke-linejoin="round"/>
<path d="M96.2595 91.543H79.276C76.754 91.543 74.7095 93.569 74.7095 96.0681V104.475C74.7095 106.974 76.754 109 79.276 109H96.2595C98.7815 109 100.826 106.974 100.826 104.475V96.0681C100.826 93.569 98.7815 91.543 96.2595 91.543Z" stroke="#604B8C" stroke-width="2.8" stroke-linecap="round" stroke-linejoin="round"/>
<path d="M80.1821 96.9678H87.7681" stroke="#604B8C" stroke-width="2.8" stroke-linecap="round" stroke-linejoin="round"/>
<path d="M80.1821 101.714H95.354" stroke="#604B8C" stroke-width="2.8" stroke-linecap="round" stroke-linejoin="round"/>
<path d="M87.769 91.5433V83.1836" stroke="#604B8C" stroke-width="2.8" stroke-linecap="round" stroke-linejoin="round"/>
<path d="M87.769 65.7261V57.3682" stroke="#604B8C" stroke-width="2.8" stroke-linecap="round" stroke-linejoin="round"/>
<path d="M68.7291 100.273H23.5456C18.8258 100.273 15 96.482 15 91.8049V23.4682C15 18.7912 18.8258 15 23.5456 15H100.828C105.548 15 109.374 18.7912 109.374 23.4682V91.8067C109.374 96.4838 105.548 100.275 100.828 100.275" stroke="#604B8C" stroke-width="2.8" stroke-linecap="round" stroke-linejoin="round"/>
<path d="M34.2656 40.6763H59.8859C60.7033 40.6763 61.4933 40.3816 62.1081 39.8483L70.8635 32.2407C71.4783 31.7073 72.2683 31.4127 73.0856 31.4127H101.353C105.781 31.4127 109.37 27.8565 109.37 23.4688" stroke="#604B8C" stroke-width="2.8" stroke-linecap="round" stroke-linejoin="round"/>
<path d="M15 22.1445V29.0507C15 35.4705 20.2525 40.6737 26.7292 40.6737" stroke="#604B8C" stroke-width="2.8" stroke-linecap="round" stroke-linejoin="round"/>
<path d="M27.0825 31.7725C29.4604 31.7725 31.3881 29.8623 31.3881 27.5059C31.3881 25.1495 29.4604 23.2393 27.0825 23.2393C24.7046 23.2393 22.7769 25.1495 22.7769 27.5059C22.7769 29.8623 24.7046 31.7725 27.0825 31.7725Z" stroke="#604B8C" stroke-width="2.8" stroke-linecap="round" stroke-linejoin="round"/>
<path d="M40.1128 31.7725C42.4907 31.7725 44.4184 29.8623 44.4184 27.5059C44.4184 25.1495 42.4907 23.2393 40.1128 23.2393C37.7348 23.2393 35.8071 25.1495 35.8071 27.5059C35.8071 29.8623 37.7348 31.7725 40.1128 31.7725Z" stroke="#604B8C" stroke-width="2.8" stroke-linecap="round" stroke-linejoin="round"/>
<path d="M53.1406 31.7725C55.5185 31.7725 57.4462 29.8623 57.4462 27.5059C57.4462 25.1495 55.5185 23.2393 53.1406 23.2393C50.7627 23.2393 48.835 25.1495 48.835 27.5059C48.835 29.8623 50.7627 31.7725 53.1406 31.7725Z" stroke="#604B8C" stroke-width="2.8" stroke-linecap="round" stroke-linejoin="round"/>
</g>
<defs>
<clipPath id="clip0_1514_13438">
<rect width="124" height="124" fill="white"/>
</clipPath>
</defs>
</svg>
