<svg width="124" height="124" viewBox="0 0 124 124" fill="none" xmlns="http://www.w3.org/2000/svg">
<rect width="87.8296" height="84.37" rx="14.8173" transform="matrix(0.967844 -0.251551 0.25587 0.966711 2 35.0938)" fill="#CCBDF1"/>
<path d="M22 33.9521H110.332V91.1638C110.332 95.32 106.959 98.6938 102.802 98.6938H29.5318C25.3756 98.6938 22.0018 95.32 22.0018 91.1638V33.9521H22Z" fill="white"/>
<path d="M66.2734 42.1646C53.0896 42.1646 42.4043 52.8517 42.4043 66.0337C42.4043 79.2157 53.0915 89.9028 66.2734 89.9028C79.4554 89.9028 90.1426 79.2157 90.1426 66.0337C90.1426 52.8517 79.4554 42.1646 66.2734 42.1646ZM66.2734 82.4329C57.2167 82.4329 49.8742 75.0904 49.8742 66.0337C49.8742 56.977 57.2167 49.6345 66.2734 49.6345C75.3301 49.6345 82.6727 56.977 82.6727 66.0337C82.6727 75.0904 75.3301 82.4329 66.2734 82.4329Z" fill="#41CC96"/>
<path d="M58.1182 51.8035C60.5202 50.4242 63.3043 49.6362 66.2723 49.6362C75.329 49.6362 82.6715 56.9788 82.6715 66.0355C82.6715 75.0922 75.329 82.4347 66.2723 82.4347C57.2156 82.4347 49.873 75.0922 49.873 66.0355C49.873 62.3833 51.0668 59.0096 53.0867 56.2836" fill="#BEEFD9"/>
<path d="M94.6909 84.0264L108.175 97.5104C111.054 100.389 111.054 105.055 108.175 107.934C106.736 109.373 104.85 110.092 102.963 110.092C101.076 110.092 99.191 109.373 97.7516 107.934L84.2676 94.4497L94.6909 84.0264Z" fill="#CCBDF1"/>
<path d="M110.334 33.9536L22.0016 33.9536V27.7466C22.0016 23.5904 25.3754 20.2166 29.5316 20.2166L102.802 20.2166C106.958 20.2166 110.332 23.5904 110.332 27.7466V33.9536H110.334Z" fill="#BEEFD9"/>
<path d="M22 33.9521H110.547" stroke="#604B8C" stroke-width="2.8" stroke-linecap="round" stroke-linejoin="round"/>
<path d="M84.5625 26.9771H99.6024" stroke="#604B8C" stroke-width="2.8" stroke-linecap="round" stroke-linejoin="round"/>
<path d="M58.1201 51.803C60.5221 50.4237 63.3063 49.6357 66.2742 49.6357C75.3309 49.6357 82.6735 56.9783 82.6735 66.035C82.6735 75.0917 75.3309 82.4342 66.2742 82.4342C57.2175 82.4342 49.875 75.0917 49.875 66.035C49.875 62.3828 51.0687 59.0091 53.0886 56.2831" stroke="#604B8C" stroke-width="2.8" stroke-linecap="round" stroke-linejoin="round"/>
<path d="M60.1055 59.8662L72.4395 72.2002" stroke="#604B8C" stroke-width="2.8" stroke-linecap="round" stroke-linejoin="round"/>
<path d="M60.1055 72.2002L72.4395 59.8662" stroke="#604B8C" stroke-width="2.8" stroke-linecap="round" stroke-linejoin="round"/>
<path d="M86.1127 92.4354L79.5508 85.8735" stroke="#604B8C" stroke-width="2.8" stroke-linecap="round" stroke-linejoin="round"/>
<path d="M86.1133 79.3105L92.6752 85.8724" stroke="#604B8C" stroke-width="2.8" stroke-linecap="round" stroke-linejoin="round"/>
<path d="M94.6889 84.0264L108.173 97.5104C111.052 100.389 111.052 105.055 108.173 107.934C106.734 109.373 104.848 110.092 102.961 110.092C101.074 110.092 99.1891 109.373 97.7497 107.934L84.2656 94.4497L94.6889 84.0264Z" stroke="#604B8C" stroke-width="2.8" stroke-linecap="round" stroke-linejoin="round"/>
<path d="M110.548 57.0098V90.9492C110.548 93.3639 109.441 95.5221 107.709 96.9433" stroke="#604B8C" stroke-width="2.8" stroke-linecap="round" stroke-linejoin="round"/>
<path d="M79.5503 98.6952H29.7466C25.4685 98.6952 22.002 95.2268 22.002 90.9505V27.7465C22.0001 23.4684 25.4685 20 29.7466 20H102.803C107.081 20 110.547 23.4684 110.547 27.7447V49.6322" stroke="#604B8C" stroke-width="2.8" stroke-linecap="round" stroke-linejoin="round"/>
<path d="M31.3777 28.6983C32.3284 28.6983 33.0991 27.9275 33.0991 26.9768C33.0991 26.0261 32.3284 25.2554 31.3777 25.2554C30.427 25.2554 29.6562 26.0261 29.6562 26.9768C29.6562 27.9275 30.427 28.6983 31.3777 28.6983Z" fill="#604B8C"/>
<path d="M37.5652 28.6983C38.5159 28.6983 39.2866 27.9275 39.2866 26.9768C39.2866 26.0261 38.5159 25.2554 37.5652 25.2554C36.6145 25.2554 35.8438 26.0261 35.8438 26.9768C35.8438 27.9275 36.6145 28.6983 37.5652 28.6983Z" fill="#604B8C"/>
<path d="M43.7527 28.6983C44.7034 28.6983 45.4741 27.9275 45.4741 26.9768C45.4741 26.0261 44.7034 25.2554 43.7527 25.2554C42.802 25.2554 42.0312 26.0261 42.0312 26.9768C42.0312 27.9275 42.802 28.6983 43.7527 28.6983Z" fill="#604B8C"/>
<path d="M83.1497 82.9112C92.4712 73.5898 92.4712 58.4767 83.1497 49.1552C73.8282 39.8337 58.7151 39.8337 49.3937 49.1552C40.0722 58.4767 40.0722 73.5898 49.3937 82.9112C58.7151 92.2327 73.8282 92.2327 83.1497 82.9112Z" stroke="#604B8C" stroke-width="2.8" stroke-linecap="round" stroke-linejoin="round"/>
</svg>
